<?xml version="1.0" encoding="UTF-8" standalone="no"?>
<!-- Created with Inkscape (http://www.inkscape.org/) -->

<svg
   width="210mm"
   height="297mm"
   viewBox="0 0 210 297"
   version="1.1"
   id="svg5"
   inkscape:version="1.2.1 (9c6d41e410, 2022-07-14)"
   sodipodi:docname="ryba.svg"
   xmlns:inkscape="http://www.inkscape.org/namespaces/inkscape"
   xmlns:sodipodi="http://sodipodi.sourceforge.net/DTD/sodipodi-0.dtd"
   xmlns:xlink="http://www.w3.org/1999/xlink"
   xmlns="http://www.w3.org/2000/svg"
   xmlns:svg="http://www.w3.org/2000/svg">
  <sodipodi:namedview
     id="namedview7"
     pagecolor="#ffffff"
     bordercolor="#666666"
     borderopacity="1.0"
     inkscape:showpageshadow="2"
     inkscape:pageopacity="0.0"
     inkscape:pagecheckerboard="0"
     inkscape:deskcolor="#d1d1d1"
     inkscape:document-units="mm"
     showgrid="false"
     inkscape:zoom="1.4142136"
     inkscape:cx="45.254834"
     inkscape:cy="727.61287"
     inkscape:window-width="1920"
     inkscape:window-height="1017"
     inkscape:window-x="-8"
     inkscape:window-y="-8"
     inkscape:window-maximized="1"
     inkscape:current-layer="layer1" />
  <defs
     id="defs2">
    <linearGradient
       inkscape:collect="always"
       id="linearGradient1764">
      <stop
         style="stop-color:#c83737;stop-opacity:1;"
         offset="0"
         id="stop1760" />
      <stop
         style="stop-color:#37c869;stop-opacity:0;"
         offset="1"
         id="stop1762" />
    </linearGradient>
    <linearGradient
       inkscape:collect="always"
       id="linearGradient1724">
      <stop
         style="stop-color:#c83737;stop-opacity:1;"
         offset="0"
         id="stop1720" />
      <stop
         style="stop-color:#c83737;stop-opacity:0;"
         offset="1"
         id="stop1722" />
    </linearGradient>
    <linearGradient
       inkscape:collect="always"
       id="linearGradient1656">
      <stop
         style="stop-color:#c83737;stop-opacity:1;"
         offset="0"
         id="stop1652" />
      <stop
         style="stop-color:#6837c8;stop-opacity:0;"
         offset="1"
         id="stop1654" />
    </linearGradient>
    <linearGradient
       inkscape:collect="always"
       id="linearGradient1648">
      <stop
         style="stop-color:#c83737;stop-opacity:1;"
         offset="0"
         id="stop1644" />
      <stop
         style="stop-color:#379dc8;stop-opacity:0;"
         offset="1"
         id="stop1646" />
    </linearGradient>
    <linearGradient
       inkscape:collect="always"
       id="linearGradient1638">
      <stop
         style="stop-color:#c83737;stop-opacity:1;"
         offset="0.25297618"
         id="stop1634" />
      <stop
         style="stop-color:#c83779;stop-opacity:0.49803922;"
         offset="1"
         id="stop1642" />
      <stop
         style="stop-color:#c83737;stop-opacity:0;"
         offset="1"
         id="stop1636" />
    </linearGradient>
    <linearGradient
       inkscape:collect="always"
       id="linearGradient1630">
      <stop
         style="stop-color:#c83737;stop-opacity:1;"
         offset="0"
         id="stop1626" />
      <stop
         style="stop-color:#37c852;stop-opacity:0;"
         offset="1"
         id="stop1628" />
    </linearGradient>
    <linearGradient
       inkscape:collect="always"
       id="linearGradient1444">
      <stop
         style="stop-color:#ffcc00;stop-opacity:1;"
         offset="0"
         id="stop1440" />
      <stop
         style="stop-color:#a9ce29;stop-opacity:0.49803922;"
         offset="1"
         id="stop1448" />
      <stop
         style="stop-color:#53d153;stop-opacity:0;"
         offset="1"
         id="stop1442" />
    </linearGradient>
    <linearGradient
       inkscape:collect="always"
       id="linearGradient1284">
      <stop
         style="stop-color:#0000ff;stop-opacity:1;"
         offset="0"
         id="stop1280" />
      <stop
         style="stop-color:#4b10b0;stop-opacity:0;"
         offset="1"
         id="stop1282" />
    </linearGradient>
    <linearGradient
       inkscape:collect="always"
       xlink:href="#linearGradient1284"
       id="linearGradient1286"
       x1="145.90717"
       y1="627.01491"
       x2="411.68922"
       y2="627.01491"
       gradientUnits="userSpaceOnUse" />
    <linearGradient
       inkscape:collect="always"
       xlink:href="#linearGradient1444"
       id="linearGradient1446"
       x1="38.190287"
       y1="166.77419"
       x2="159.45487"
       y2="166.77419"
       gradientUnits="userSpaceOnUse" />
    <linearGradient
       inkscape:collect="always"
       xlink:href="#linearGradient1630"
       id="linearGradient1632"
       x1="392.39967"
       y1="810.55889"
       x2="392.57412"
       y2="810.55889"
       gradientUnits="userSpaceOnUse" />
    <linearGradient
       inkscape:collect="always"
       xlink:href="#linearGradient1638"
       id="linearGradient1640"
       x1="575.07489"
       y1="612.96686"
       x2="715.889"
       y2="612.96686"
       gradientUnits="userSpaceOnUse" />
    <linearGradient
       inkscape:collect="always"
       xlink:href="#linearGradient1648"
       id="linearGradient1650"
       x1="374.87102"
       y1="863.74345"
       x2="436.0056"
       y2="863.74345"
       gradientUnits="userSpaceOnUse" />
    <linearGradient
       inkscape:collect="always"
       xlink:href="#linearGradient1656"
       id="linearGradient1658"
       x1="368.70936"
       y1="415.85944"
       x2="510.96774"
       y2="415.85944"
       gradientUnits="userSpaceOnUse" />
    <linearGradient
       inkscape:collect="always"
       xlink:href="#linearGradient1724"
       id="linearGradient1726"
       x1="10.980209"
       y1="159.54375"
       x2="25.267708"
       y2="159.54375"
       gradientUnits="userSpaceOnUse" />
    <linearGradient
       inkscape:collect="always"
       xlink:href="#linearGradient1724"
       id="linearGradient1728"
       x1="0.9260419"
       y1="175.94792"
       x2="12.567708"
       y2="175.94792"
       gradientUnits="userSpaceOnUse" />
    <linearGradient
       inkscape:collect="always"
       xlink:href="#linearGradient1724"
       id="linearGradient1730"
       x1="24.73854"
       y1="179.3875"
       x2="36.115624"
       y2="179.3875"
       gradientUnits="userSpaceOnUse" />
    <linearGradient
       inkscape:collect="always"
       xlink:href="#linearGradient1764"
       id="linearGradient1732"
       x1="4.6302088"
       y1="134.01146"
       x2="17.859375"
       y2="134.01146"
       gradientUnits="userSpaceOnUse" />
  </defs>
  <g
     inkscape:label="Warstwa 1"
     inkscape:groupmode="layer"
     id="layer1">
    <circle
       style="fill:#ffffff;stroke:#000000;stroke-width:0.264583"
       id="path223-9"
       cx="55.709675"
       cy="134.12903"
       r="9.7580643" />
    <ellipse
       style="fill:url(#linearGradient1446);stroke:#000000;stroke-width:0.264583;fill-opacity:1"
       id="path111"
       cx="98.822578"
       cy="166.77419"
       rx="60.5"
       ry="48.258064" />
    <ellipse
       style="fill:#ffffff;stroke:#000000;stroke-width:0.303341"
       id="path113"
       cx="73.806458"
       cy="165.8871"
       rx="35.464497"
       ry="39.899975" />
    <circle
       style="fill:#ffffff;stroke:#000000;stroke-width:0.264583"
       id="path223"
       cx="60.500004"
       cy="132.88708"
       r="9.7580643" />
    <ellipse
       style="fill:#ffffff;stroke:#000000;stroke-width:0.264583"
       id="path247"
       cx="65.1129"
       cy="138.74193"
       rx="1.5967742"
       ry="2.1290321" />
    <path
       style="fill:#000000;stroke:#000000;stroke-width:0.264583"
       id="path349"
       d="m 151.88722,142.75796 c 1.83299,-0.43127 3.63531,-1.02524 5.38341,-1.72521 1.24721,-0.43617 2.41736,-1.00009 3.5607,-1.65658 1.25714,-0.74912 2.10189,-1.86115 2.79594,-3.12136 0.55007,-1.16876 0.83853,-2.42909 1.14567,-3.67607 0.23796,-1.06044 0.42291,-2.13301 0.61415,-3.20317 0.15489,-0.85871 0.20958,-1.72944 0.23572,-2.60011 0.0663,-0.98234 -0.0579,-1.95479 -0.15562,-2.92981 -0.164,-1.04504 -0.36729,-2.08236 -0.47619,-3.13521 -0.0703,-0.8813 -0.0711,-1.76615 -0.0748,-2.64966 -0.001,-0.94052 0.001,-1.88104 0.002,-2.82156 10e-4,-1.13396 10e-4,-2.26792 10e-4,-3.40188 8e-5,-1.48364 6e-5,-2.96727 5e-5,-4.45091 -0.0405,-1.3523 0.19067,-2.6867 0.44291,-4.0092 0.27704,-1.67866 0.74138,-3.31707 1.11694,-4.974914 0.311,-1.93009 0.98044,-3.760324 1.58163,-5.610593 0.56133,-1.474663 1.47585,-2.677009 2.71712,-3.631467 0.76632,-0.572812 1.65278,-0.774393 2.58312,-0.871159 0.9807,-0.13245 1.47839,0.05728 2.1925,0.709806 1.24893,1.570503 1.95247,3.508563 2.69428,5.353182 0.71998,2.00478 1.38062,4.029289 2.09777,6.035015 0.46774,1.89411 1.0052,3.76925 1.5047,5.65524 0.62176,2.11071 1.04268,4.27058 1.50508,6.4195 0.48929,2.12056 0.79113,4.27741 1.24501,6.40431 0.55228,2.34361 1.133,4.68066 1.64297,7.03382 0.7741,3.32939 1.47015,6.67554 2.17154,10.0207 0.39364,1.89699 0.83209,3.7762 1.0198,5.70674 0.18549,2.47148 0.12513,4.94936 0.0379,7.42314 -0.17576,4.1698 -0.37653,8.33863 -0.77815,12.49341 -0.51093,4.77753 -1.08698,9.54573 -1.39159,14.34211 -0.16307,4.39079 -0.48171,8.77321 -0.70432,13.16101 -0.16625,3.30713 -0.20952,6.61819 -0.22772,9.92883 -0.0114,3.55044 -0.007,7.1009 -0.005,10.65135 0.002,2.33562 0.003,4.67124 0.003,7.00685 2.6e-4,1.89423 2.6e-4,3.78845 2.6e-4,5.68268 -0.0546,1.9656 -0.49064,3.89772 -0.92313,5.80844 -0.40842,2.20332 -0.82844,4.42166 -1.69832,6.49693 -0.0671,0.14898 -0.27141,0.65709 -0.41749,0.82104 -0.13563,0.15221 -1.20064,0.3592 -1.36464,0.38839 -1.34545,0.1551 -2.71063,0.27597 -4.06496,0.18739 -0.98535,-0.10444 -1.25697,-0.62837 -1.74095,-1.41945 -0.59357,-1.06561 -0.91495,-2.25598 -1.27225,-3.41526 -0.5489,-1.81717 -1.17257,-3.60994 -1.62149,-5.45579 -0.47201,-2.02096 -0.68803,-4.0887 -0.81928,-6.15621 -0.0926,-1.92855 -0.0852,-3.86013 -0.0857,-5.79038 0.002,-1.54617 0.006,-3.09233 0.008,-4.63849 0.0354,-1.66089 -0.15273,-3.3144 -0.47787,-4.94049 -0.34345,-1.53291 -0.9151,-2.99639 -1.40026,-4.48577 -0.40327,-1.32141 -0.93772,-2.59108 -1.4613,-3.86726 -0.57876,-1.44464 -1.34265,-2.82132 -2.33619,-4.0244 -0.61651,-0.74653 -1.14928,-1.2296 -1.83632,-1.89685 -1.40491,-1.26801 -2.97138,-2.35026 -4.73649,-3.04093 -1.46354,-0.4865 -2.99544,-0.66448 -4.52458,-0.79117 -1.1833,-0.10031 -2.10858,-0.18367 -3.21362,0.31521 -0.57953,0.41505 -0.31533,0.19337 -0.79848,0.65796 -0.98897,0.98001 0.39697,2.37862 1.38595,1.39861 v 0 c 0.20513,-0.21566 0.1127,-0.12029 0.27623,-0.28712 0.65063,-0.39136 1.47322,-0.10625 2.18819,-0.12231 1.34455,0.11019 2.69197,0.25741 3.98381,0.66824 1.52636,0.56334 2.85014,1.5543 4.06894,2.6157 1.65057,1.5947 2.90968,3.06585 3.72096,5.25454 0.50542,1.23152 1.0239,2.45542 1.4113,3.73139 0.46403,1.4159 1.00496,2.80835 1.34176,4.26359 0.30498,1.49599 0.47097,3.01986 0.43897,4.54845 -0.002,1.54722 -0.006,3.09444 -0.008,4.64166 5.3e-4,1.97188 -0.007,3.94513 0.0898,5.9152 0.13996,2.18283 0.37059,4.36548 0.87167,6.49866 0.4628,1.8824 1.08699,3.71512 1.65245,5.56794 0.40752,1.32202 0.78453,2.67409 1.48387,3.87834 0.87056,1.37337 1.59485,2.16722 3.29388,2.3419 1.52247,0.0839 3.05419,-0.021 4.56452,-0.2214 1.57091,-0.3319 2.63891,-0.7817 3.21872,-2.38725 0.89673,-2.18513 1.38943,-4.49633 1.79979,-6.81634 0.46385,-2.05331 0.92449,-4.12987 0.97161,-6.24271 1e-5,-1.89435 2e-5,-3.78871 -2.6e-4,-5.68307 -5.3e-4,-2.3359 -0.002,-4.67179 -0.003,-7.00769 -0.002,-3.54643 -0.007,-7.09289 0.005,-10.63931 0.018,-3.28098 0.0606,-6.56239 0.22522,-9.83989 0.2221,-4.37953 0.54057,-8.75366 0.70291,-13.13617 0.3022,-4.77493 0.87976,-9.52136 1.38643,-14.27763 0.40389,-4.19477 0.6098,-8.40331 0.78603,-12.6132 0.09,-2.56104 0.15019,-5.12659 -0.0461,-7.68494 -0.19845,-2.00127 -0.63791,-3.95246 -1.05227,-5.9183 -0.70238,-3.3496 -1.39927,-6.70023 -2.1744,-10.03405 -0.51055,-2.35118 -1.08809,-4.68708 -1.64181,-7.02848 -0.45666,-2.12693 -0.75303,-4.28586 -1.24547,-6.40644 -0.46893,-2.17915 -0.897,-4.36916 -1.52675,-6.50977 -0.51442,-1.93922 -1.05879,-3.86973 -1.55392,-5.813668 -0.7258,-2.029931 -1.39222,-4.079682 -2.12516,-6.107157 -0.85846,-2.131981 -1.67848,-4.38182 -3.23882,-6.112486 -1.19556,-0.988642 -2.121,-1.363967 -3.6869,-1.172967 -1.29392,0.144754 -2.52574,0.475951 -3.58293,1.276977 -1.56777,1.239441 -2.67006,2.687751 -3.3777,4.574863 -0.6194,1.907336 -1.30504,3.795863 -1.62939,5.784276 -0.37985,1.680067 -0.85106,3.340242 -1.13081,5.041502 -0.27412,1.44395 -0.51864,2.90134 -0.47761,4.37725 1e-5,1.48357 4e-5,2.96714 -5e-5,4.4507 -1.2e-4,1.13318 -1.6e-4,2.26636 -0.001,3.39954 -0.001,0.94418 -0.004,1.88835 -0.002,2.83253 0.004,0.94888 0.006,1.89925 0.0854,2.84549 0.11033,1.05004 0.29992,2.08697 0.47541,3.12759 0.0895,0.89075 0.21123,1.77708 0.14664,2.67483 -0.0226,0.77424 -0.0685,1.54875 -0.20596,2.31249 -0.18333,1.02849 -0.36136,2.0592 -0.58775,3.07871 -0.26632,1.08354 -0.51129,2.17852 -0.96277,3.20456 -0.50843,0.94652 -1.11089,1.78676 -2.04732,2.35575 -1.06443,0.61119 -2.15017,1.1356 -3.31431,1.53707 -1.67592,0.67587 -3.40863,1.2391 -5.16742,1.65264 -1.34324,0.36634 -0.82516,2.26595 0.51807,1.89962 z" />
    <path
       style="fill:#000000;stroke:#000000;stroke-width:0.264583"
       id="path351"
       d="m 87.725566,119.97011 c 1.451203,-0.53455 2.964064,-0.86715 4.444429,-1.30586 1.699903,-0.46635 3.241349,-1.25827 4.763698,-2.12507 1.2855,-0.75417 2.440615,-1.69277 3.584717,-2.64085 1.0245,-0.82874 2.09874,-1.59326 3.08986,-2.46237 1.09038,-0.9617 2.11572,-1.99841 3.12618,-3.04371 0.95202,-1.16721 2.00109,-2.25043 2.96881,-3.40464 0.60301,-0.80923 1.48846,-1.21344 2.36104,-1.65941 1.30426,-0.54022 2.59775,-1.1008 3.92407,-1.58607 1.23583,-0.43631 2.51958,-0.7085 3.81698,-0.87649 1.27972,-0.15274 2.56949,-0.16552 3.85643,-0.17611 1.1319,-0.0385 2.24649,0.0764 3.32405,0.41606 1.00514,0.39291 2.03235,0.7245 3.01666,1.16796 1.08691,0.59884 2.04916,1.39852 3.07718,2.09414 0.84447,0.68072 1.91959,1.10748 2.66804,1.90519 0.23837,0.44144 -0.026,-0.003 -0.035,-1.5e-4 -0.0979,0.0342 -0.14306,0.1506 -0.22118,0.21881 -0.5966,0.48709 -1.20151,0.9723 -1.85196,1.3874 -0.91233,0.57923 -1.82243,1.1604 -2.7481,1.71832 -1.20986,0.71504 -2.47367,1.33615 -3.731,1.96278 -1.0013,0.42682 -1.97108,0.92522 -2.9825,1.32774 -0.65979,0.35213 -1.36522,0.58504 -2.07114,0.82194 -0.89127,0.35407 -1.70316,0.89862 -2.48593,1.44732 -0.71772,0.50036 -1.43499,0.99944 -2.14804,1.50648 -0.66027,0.47077 -1.35346,0.87055 -2.10324,1.18149 -0.68646,0.26929 -1.41603,0.34886 -2.14575,0.38914 -0.15185,0.021 -0.3037,0.0421 -0.45555,0.0631 -1.37744,0.20281 -1.09063,2.15081 0.28681,1.948 v 0 c 0.0936,-0.0151 0.18715,-0.0302 0.28073,-0.0453 0.95362,-0.0557 1.9037,-0.17932 2.79686,-0.53984 0.88005,-0.37387 1.70303,-0.83757 2.48146,-1.39213 0.71226,-0.50684 1.42886,-1.00535 2.14613,-1.50512 0.61942,-0.44693 1.27728,-0.8738 1.97429,-1.18691 0.73982,-0.24937 1.48318,-0.49179 2.17503,-0.86018 1.05986,-0.42625 2.08148,-0.93968 3.12961,-1.39373 1.30387,-0.6507 2.61482,-1.29466 3.86868,-2.03844 0.94298,-0.56841 1.87014,-1.1605 2.79962,-1.75047 0.77763,-0.50637 1.51856,-1.07569 2.21434,-1.68846 0.86594,-0.97406 1.12528,-1.88716 0.21868,-2.96352 -0.87944,-0.85245 -1.964,-1.43781 -2.95773,-2.14442 -1.12185,-0.75851 -2.16609,-1.64202 -3.37452,-2.25975 -1.05698,-0.47229 -2.15485,-0.838064 -3.23596,-1.251018 -1.27514,-0.394618 -2.58995,-0.549862 -3.92688,-0.505385 -1.36694,0.01138 -2.73675,0.0278 -4.09572,0.192701 -1.44054,0.190418 -2.86641,0.491635 -4.23811,0.97977 -1.40104,0.512882 -2.7693,1.102632 -4.14351,1.681892 -1.10692,0.56585 -2.20627,1.13304 -2.97525,2.14943 -0.93442,1.12038 -1.95706,2.16477 -2.87426,3.2995 -0.9739,1.00787 -1.96118,2.00851 -3.01261,2.93522 -0.97064,0.8617 -2.04233,1.59873 -3.044102,2.42324 -1.055867,0.87532 -2.117934,1.74618 -3.302516,2.44577 -1.411457,0.80373 -2.768854,1.51854 -4.350435,1.94875 -1.537023,0.45839 -3.111079,0.79726 -4.614669,1.36507 -1.292712,0.51708 -0.561443,2.34526 0.731268,1.82817 z" />
    <path
       style="fill:#000000;stroke:#000000;stroke-width:0.264583"
       id="path353"
       d="m 97.652812,119.60084 c 1.449777,-0.69672 2.903808,-1.38322 4.362218,-2.06141 1.39216,-0.71768 2.74345,-1.50701 4.08225,-2.31875 2.10168,-1.28449 4.19425,-2.58453 6.30641,-3.852 1.19376,-0.71653 0.18043,-2.40476 -1.01333,-1.68823 v 0 c -2.11452,1.26951 -4.21009,2.57054 -6.31431,3.85677 -1.27685,0.77498 -2.56595,1.52719 -3.89135,2.21685 -1.448178,0.67359 -2.892482,1.35446 -4.331572,2.04747 -1.272294,0.56546 -0.47261,2.36476 0.799684,1.7993 z" />
    <path
       style="fill:#000000;stroke:#000000;stroke-width:0.264583"
       id="path355"
       d="m 108.15031,119.02555 c 1.70201,-0.99937 3.28289,-2.18397 4.94203,-3.24994 1.32112,-0.85117 2.65936,-1.67691 3.96943,-2.54469 1.0031,-0.54055 1.97266,-1.13736 2.90299,-1.79582 0.84851,-0.66625 1.69129,-1.33885 2.52012,-2.02928 1.19849,-1.03675 2.3146,-2.16284 3.48061,-3.23435 1.0244,-0.94291 -0.30908,-2.39164 -1.33348,-1.44872 v 0 c -1.14118,1.05197 -2.23801,2.1521 -3.40933,3.17184 -0.78739,0.65961 -1.59331,1.29539 -2.39729,1.93465 -0.91271,0.64939 -1.87174,1.22204 -2.85258,1.76121 -1.30024,0.86519 -2.63381,1.68087 -3.94541,2.529 -1.68006,1.08117 -3.28443,2.27654 -5.00624,3.29303 -1.14061,0.79843 -0.0114,2.41149 1.12915,1.61307 z" />
    <path
       style="fill:#000000;stroke:#000000;stroke-width:0.264583"
       id="path357"
       d="m 98.656409,216.03441 c 0.974542,0.62703 1.695151,1.43661 2.307081,2.40396 0.41639,0.65135 0.518,1.3936 0.58156,2.14661 0.0462,0.82685 0.0333,1.6557 0.0292,2.48345 -0.0447,0.94072 -0.23994,1.83511 -0.54952,2.71976 -0.38731,1.14159 -0.93887,2.22202 -1.508489,3.28217 -0.599927,1.06266 -1.276927,2.07652 -1.803215,3.17888 -0.480007,1.05187 -0.665411,2.1778 -0.740942,3.32079 -0.0444,1.00746 -0.03493,2.0163 -0.03032,3.02444 0.06451,1.1592 0.517504,2.25353 1.098124,3.24412 0.671203,1.25573 1.640274,1.78452 2.926612,2.26778 1.41664,0.46172 2.90221,0.56287 4.37972,0.62531 1.23091,0.04 2.46265,0.0377 3.69405,0.0346 1.21457,0.0734 2.26417,-0.39611 3.2536,-1.05018 1.04282,-0.66646 1.87686,-1.56499 2.61065,-2.54936 0.67128,-0.97598 1.19011,-2.02938 1.4916,-3.17367 0.27713,-1.1436 0.51531,-2.29823 0.71159,-3.45853 0.19146,-1.26145 0.39393,-2.51826 0.51088,-3.7897 0.0157,-1.46484 -0.47945,-2.83859 -0.93834,-4.20653 -0.50769,-1.35954 -1.0014,-2.72738 -1.37046,-4.13197 -0.38078,-1.24192 -0.69912,-2.50002 -1.04101,-3.75255 -0.33028,-1.28904 -0.84419,-2.52542 -1.43686,-3.71426 -0.50639,-0.99247 -1.02819,-1.98275 -1.70777,-2.8676 -0.56549,-0.78638 -1.13413,-1.57276 -1.83187,-2.24478 -0.86237,-0.81361 -1.91025,-1.3683 -2.94576,-1.92369 -0.85882,-0.41841 -1.74613,-0.77712 -2.62694,-1.14678 -0.9732,-0.37536 -2.00968,-0.45012 -3.0405,-0.49699 -0.882927,-0.0302 -1.766506,-0.0265 -2.649802,-0.0241 -1.068035,0.071 -1.818783,0.44153 -2.435833,1.31567 -0.251846,0.7049 -0.503642,1.4108 -0.748961,2.12113 -0.365525,1.02562 -0.340294,2.02876 -0.0058,3.05358 0.484254,1.1635 1.441032,1.86241 2.581273,2.30005 0.472635,0.17224 0.265117,0.0784 0.629536,0.26542 1.251117,0.61089 2.115047,-1.15845 0.863933,-1.76935 v 0 c -0.554196,-0.26289 -0.282191,-0.15032 -0.813419,-0.3439 -0.591494,-0.2009 -1.124151,-0.52133 -1.403837,-1.10545 -0.240355,-0.58793 -0.191653,-1.16313 0.01077,-1.76129 0.192878,-0.56666 0.457663,-1.11289 0.551222,-1.7086 0.04215,-0.31109 0.535908,-0.35102 0.77647,-0.39826 0.852141,-0.002 1.704549,-0.006 2.556358,0.0221 0.79919,0.0352 1.60662,0.0733 2.36762,0.34595 0.8235,0.34454 1.65151,0.68221 2.4573,1.06597 0.89217,0.47851 1.80513,0.94242 2.54938,1.64313 0.65733,0.52913 1.05842,1.34936 1.59825,1.9907 0.60369,0.78336 1.05468,1.66976 1.50776,2.54855 0.53911,1.07158 1.00239,2.18983 1.29872,3.35378 0.34379,1.24543 0.65539,2.49937 1.0362,3.73469 0.38394,1.44502 0.88074,2.85661 1.40736,4.25517 0.37233,1.1094 0.79153,2.21833 0.84426,3.40059 -0.11142,1.22217 -0.30845,2.42979 -0.49175,3.64237 -0.18545,1.10713 -0.4154,2.20815 -0.67798,3.2994 -0.2182,0.90185 -0.65865,1.71599 -1.16671,2.48902 -0.59251,0.80965 -1.27305,1.54256 -2.12583,2.08588 -0.6618,0.4554 -1.333,0.78405 -2.16031,0.71537 -1.20227,0.003 -2.40486,0.006 -3.60667,-0.0329 -1.2707,-0.0526 -2.5498,-0.12597 -3.77392,-0.50287 -0.94635,-0.34993 -1.42342,-0.50646 -1.930628,-1.44311 -0.424974,-0.66403 -0.726789,-1.44799 -0.813247,-2.23295 -0.0044,-0.96316 -0.01357,-1.92696 0.0263,-2.88955 0.0552,-0.8956 0.1855,-1.7792 0.55667,-2.60641 0.5002,-1.07631 1.191035,-2.04601 1.757225,-3.08763 0.61826,-1.15199 1.21218,-2.32745 1.6337,-3.56743 0.37647,-1.09008 0.61324,-2.19943 0.65857,-3.35629 0.004,-0.88825 0.0182,-1.7778 -0.0367,-2.66487 -0.096,-1.06656 -0.29116,-2.11278 -0.88096,-3.03055 -0.71652,-1.12431 -1.56187,-2.10476 -2.687775,-2.8433 -1.057108,-0.90609 -2.338517,0.58888 -1.281409,1.49498 z" />
    <path
       style="fill:#000000;stroke:#000000;stroke-width:0.264583"
       id="path359"
       d="m 90.849957,215.67957 c 0.997249,0.73145 1.935943,1.52831 2.855336,2.35296 0.788326,0.69176 1.438571,1.51909 2.186058,2.25304 0.843455,0.83293 1.67549,1.67911 2.53814,2.49234 0.660728,0.65879 1.502818,1.08102 2.362679,1.41777 0.13819,0.0411 0.27637,0.0822 0.41455,0.1233 1.33779,0.38577 1.88335,-1.50614 0.54557,-1.89192 v 0 c -0.085,-0.0233 -0.16989,-0.0465 -0.25483,-0.0697 -0.62882,-0.23352 -1.24181,-0.5356 -1.719559,-1.01426 -0.856139,-0.8016 -1.674673,-1.64396 -2.510825,-2.46616 -0.77171,-0.74869 -1.427234,-1.61077 -2.247339,-2.31039 -0.930547,-0.834 -1.876782,-1.64534 -2.888371,-2.38192 -1.057109,-0.90609 -2.338517,0.58888 -1.281409,1.49497 z" />
    <path
       style="fill:#000000;stroke:#000000;stroke-width:1.34112"
       d="m 243.45258,529.59068 c -2.63073,-2.63073 -2.63073,-7.7927 0,-10.42342 3.98958,-3.98959 8.47167,1.18025 6.79947,7.84282 -1.0023,3.99347 -4.18041,5.19966 -6.79947,2.5806 z"
       id="path430"
       transform="scale(0.26458333)" />
    <path
       style="fill:#000000;stroke:#000000;stroke-width:0.264583"
       id="path434"
       d="m 40.250721,177.17767 c 2.46068,1.14228 4.96131,2.19302 7.484469,3.1885 2.217846,0.91257 4.52537,1.53644 6.849624,2.10359 1.799873,0.50223 3.680264,0.56885 5.496824,0.97359 1.129951,0.297 2.280629,0.48084 3.443203,0.58198 0.875874,0.0646 1.754709,0.0618 2.632392,0.0622 1.188824,0.0627 2.334181,-0.15069 3.460869,-0.51242 0.845421,-0.34167 1.654712,-0.7669 2.456789,-1.19877 1.225373,-0.66101 0.290563,-2.39396 -0.934813,-1.73294 v 0 c -0.699156,0.37791 -1.406085,0.74552 -2.13596,1.06088 -0.924851,0.31241 -1.866963,0.46807 -2.845988,0.41425 -0.821597,-2.6e-4 -1.644277,0.003 -2.464305,-0.055 -1.077934,-0.0918 -2.143159,-0.26708 -3.190314,-0.54351 -1.804855,-0.39071 -3.662347,-0.48529 -5.451972,-0.96321 -2.237301,-0.54582 -4.459399,-1.14204 -6.593816,-2.02234 -2.469635,-0.97403 -4.916845,-2.00269 -7.32644,-3.11798 -1.245304,-0.62266 -2.125869,1.13847 -0.880562,1.76112 z" />
    <path
       style="fill:#000000;stroke:#000000;stroke-width:0.264583"
       id="path436"
       d="m 70.256314,179.51958 c 1.150015,1.07742 2.193888,2.24926 3.121557,3.52197 0.561438,0.79843 0.874853,1.69611 1.067806,2.64258 0.287588,1.36227 2.214126,0.95556 1.926539,-0.40671 v 0 c -0.263451,-1.21635 -0.674425,-2.3747 -1.405059,-3.39826 -0.991108,-1.35105 -2.094018,-2.60589 -3.31855,-3.75188 -0.984498,-0.9845 -2.376794,0.40779 -1.392293,1.3923 z" />
    <path
       style="fill:url(#linearGradient1286);stroke:#000000;stroke-width:1.34112;fill-opacity:1"
       d="m 266.36037,775.54446 c -24.69371,-2.11193 -51.06313,-14.52394 -71.25011,-33.53724 -12.9967,-12.24105 -20.01566,-21.05224 -28.17333,-35.36709 -5.79263,-10.16474 -14.04894,-29.77581 -14.04894,-33.37018 0,-1.17186 5.057,0.38694 15.19932,4.68513 19.32055,8.18783 30.71329,11.5597 52.49974,15.53823 23.48967,4.28954 36.65499,4.24823 46.09134,-0.14463 3.94413,-1.83609 7.61123,-3.06637 8.14911,-2.73393 0.94519,0.58415 4.42469,8.23511 6.01637,13.22919 0.55325,1.73587 1.83967,2.31451 4.47235,2.01169 4.84682,-0.55751 5.50808,-5.5038 1.84336,-13.7885 -3.55485,-8.03632 -15.6624,-20.83523 -19.70977,-20.83523 -4.009,0 -5.61061,4.69582 -2.69896,7.91316 3.04131,3.36061 2.83157,3.66663 -4.14139,6.04257 -8.29073,2.82492 -14.86107,2.69762 -34.34656,-0.6655 -21.05777,-3.63448 -35.56536,-7.87177 -54.5992,-15.947 -8.4826,-3.59881 -16.93167,-6.73642 -18.77571,-6.97246 -3.11707,-0.39901 -3.47494,-1.2307 -5.08981,-11.82873 -2.16241,-14.19143 -1.33608,-41.05201 1.7122,-55.65659 5.82751,-27.92003 19.20336,-54.99566 35.87985,-72.62859 l 6.86344,-7.25708 1.65098,3.92653 c 2.70492,6.43311 11.4994,15.14509 18.6633,18.48821 9.33114,4.3545 22.86556,4.34732 32.23804,-0.0171 18.73996,-8.72649 27.23886,-32.53157 18.16334,-50.87483 -1.50918,-3.05032 -2.24134,-6.04865 -1.62703,-6.66296 1.86019,-1.86019 31.06889,-1.28703 41.11053,0.80671 44.96602,9.37568 84.48343,46.32831 100.35875,93.84522 6.41644,19.20523 8.20708,30.81936 8.20708,53.23138 0,44.23529 -13.6589,79.39718 -42.52466,109.47067 -28.12165,29.29826 -62.56317,42.4832 -102.13363,39.09894 z"
       id="path578"
       transform="scale(0.26458333)" />
    <path
       style="fill:url(#linearGradient1640);stroke:#000000;stroke-width:1.34112;fill-opacity:1"
       d="m 669.20369,888.95622 c -2.64658,-2.64658 -3.69204,-5.22105 -8.90156,-21.92041 -6.19593,-19.86133 -6.71876,-23.92298 -7.76844,-60.35052 -0.97073,-33.68782 -1.0506,-34.39894 -5.34726,-47.60985 -6.8873,-21.17629 -12.25014,-31.25365 -21.12912,-39.70393 -10.93756,-10.40947 -18.16602,-14.27804 -30.16385,-16.1433 l -10.13258,-1.57529 3.6909,-8.16961 c 10.29037,-22.77721 14.09754,-43.37452 13.00878,-70.3793 -1.06893,-26.51331 -7.69994,-48.96323 -20.99705,-71.08756 -3.5945,-5.98068 -6.14065,-11.08482 -5.6581,-11.34253 0.48254,-0.25771 5.38143,-1.91723 10.88643,-3.68782 24.34244,-7.82938 31.44343,-14.20882 36.42519,-32.72397 3.21735,-11.95757 3.37262,-17.90734 1.84554,-70.71924 -0.89859,-31.07665 -0.83643,-32.22665 2.63768,-48.79967 7.15291,-34.12256 12.74036,-45.72233 23.5895,-48.97281 3.95295,-1.18434 6.13663,-1.205 8.60264,-0.0814 8.70635,3.96688 22.68223,45.00098 34.27627,100.63736 2.86763,13.76091 8.55904,40.10747 12.64756,58.54791 4.08854,18.44044 7.80636,38.65786 8.26183,44.92761 0.99309,13.67036 -1.21667,53.75004 -4.86559,88.24975 -4.41678,41.75974 -5.6328,68.63604 -6.68665,147.78784 -0.92412,69.40746 -1.23996,76.78748 -3.75942,87.84354 -1.5128,6.63855 -3.86833,15.08 -5.23451,18.75876 -2.28156,6.14367 -2.91816,6.76571 -7.81276,7.63417 -9.09602,1.61393 -15.06559,1.23012 -17.41543,-1.11972 z"
       id="path1588"
       transform="scale(0.26458333)" />
    <path
       style="fill:url(#linearGradient1650);stroke:#000000;stroke-width:1.34112;fill-opacity:1"
       d="m 387.03954,914.87302 c -9.09476,-2.41393 -11.53142,-6.67622 -11.4976,-20.11197 0.0266,-10.57991 0.24384,-11.33442 6.24433,-21.69018 8.92222,-15.39817 10.92529,-22.61275 10.24262,-36.89139 -0.49014,-10.25169 -1.03386,-12.40123 -4.18033,-16.52647 -1.9893,-2.60811 -3.61691,-4.99745 -3.61691,-5.30964 0,-0.31219 5.48453,-0.98164 12.18784,-1.48768 6.70331,-0.50603 13.83868,-1.25022 15.85637,-1.65376 3.39708,-0.67942 3.92671,-0.15419 7.15758,7.09797 1.91898,4.30742 4.42193,11.4527 5.56213,15.87841 1.14019,4.4257 3.93729,13.47828 6.21577,20.11684 2.27848,6.63856 4.13412,14.78588 4.12365,18.10515 -0.0252,7.99541 -3.49745,25.67605 -5.97366,30.41792 -2.22593,4.26259 -8.12947,10.07883 -12.51929,12.33414 -3.75633,1.92986 -22.12786,1.75766 -29.8025,-0.27934 z"
       id="path1590"
       transform="scale(0.26458333)" />
    <path
       style="fill:#c83737;stroke:#000000;stroke-width:1.34112"
       d="m 368.66726,826.4844 -13.26975,-13.05839 6.35264,-0.0176 c 5.8277,-0.0161 6.9017,0.52862 12.99717,6.5921 6.40364,6.37003 9.40573,13.21666 7.8022,17.79386 -0.37448,1.06894 -5.7693,-3.32627 -13.88226,-11.31002 z"
       id="path1602"
       transform="scale(0.26458333)" />
    <path
       style="fill:url(#linearGradient1658);stroke:#000000;stroke-width:1.34112;fill-opacity:1"
       d="m 416.48753,449.95583 -4.625,-0.67973 10.66005,-6.89358 c 5.86302,-3.79147 16.6951,-10.79195 24.07127,-15.55661 7.37618,-4.76467 17.51698,-12.45765 22.53512,-17.09551 7.40552,-6.84432 9.04731,-9.09239 8.7173,-11.9364 -0.76328,-6.57777 -5.28884,-5.17735 -16.60538,5.13846 -5.71379,5.20851 -18.89065,14.85005 -29.28191,21.42563 -24.56837,15.54686 -30.29274,19.77741 -30.29274,22.38766 0,1.40657 -0.73143,1.86608 -2.12137,1.33271 -1.16675,-0.44772 -5.24041,-0.82421 -9.05258,-0.83664 l -6.9312,-0.0226 4.02337,-2.42004 c 2.21285,-1.33103 12.01296,-7.20503 21.77802,-13.05336 9.76506,-5.84832 18.06109,-11.43141 18.43562,-12.40686 0.90253,-2.35058 -1.62934,-6.94375 -3.82756,-6.94375 -0.95784,0 -8.32955,3.99822 -16.38156,8.88492 -19.94471,12.10428 -36.46389,20.94486 -38.11092,20.39585 -0.75078,-0.25026 3.01602,-3.72778 8.37067,-7.72783 5.35465,-4.00004 17.27954,-14.91558 26.49976,-24.25675 16.13628,-16.34796 17.18736,-17.14674 28.06889,-21.33132 19.10946,-7.3487 36.13905,-8.77803 49.33323,-4.14065 7.34611,2.58195 28.54657,15.64606 28.54657,17.59092 0,2.43521 -30.55717,19.4086 -45.6545,25.35942 -3.67246,1.44755 -11.6417,5.95566 -17.70942,10.01803 -8.10494,5.4263 -12.75722,7.61496 -17.5333,8.24853 -4.12118,0.54669 -6.82805,1.6562 -7.39426,3.03081 -0.66481,1.61401 -2.07567,1.99463 -5.51817,1.48868 z"
       id="path1604"
       transform="scale(0.26458333)" />
    <path
       style="fill:#c83737;stroke:#000000;stroke-width:0.11854"
       d="m 380.16032,811.9432 c -0.0918,-0.14854 -2.41951,-1.81483 -3.05882,-2.18966 -0.39899,-0.23393 -0.54391,-0.41443 -0.711,-0.88558 -0.12355,-0.34839 -0.46001,-0.86547 -0.81807,-1.25724 -0.49747,-0.54431 -0.86838,-0.79375 -2.03731,-1.37011 -0.78601,-0.38755 -1.49807,-0.70464 -1.58236,-0.70464 -0.0843,0 -0.15325,-0.0517 -0.15325,-0.11482 0,-0.0631 -0.0933,-0.0813 -0.20744,-0.0403 -0.15389,0.0553 -0.13093,-0.009 0.0889,-0.25057 0.16299,-0.1788 0.24301,-0.31223 0.17781,-0.29651 -0.19252,0.0464 -0.53759,-0.14349 -0.46732,-0.2572 0.0356,-0.0576 -0.0253,-0.0702 -0.13539,-0.028 -0.14058,0.0539 -0.1821,0.0271 -0.13952,-0.0903 0.0333,-0.0919 0.1246,-0.1524 0.2028,-0.13449 0.0827,0.019 0.10578,-0.0263 0.0552,-0.10815 -0.0609,-0.0985 -0.15244,-0.0599 -0.30516,0.12874 -0.27697,0.34204 -0.27078,0.0652 0.009,-0.40878 0.18692,-0.31653 0.19098,-0.38494 0.037,-0.62233 -0.0952,-0.1467 -0.13003,-0.26672 -0.0775,-0.26672 0.0526,0 -0.008,-0.0844 -0.13454,-0.18748 -0.19647,-0.16009 -0.19979,-0.17796 -0.0227,-0.12226 0.11409,0.0359 0.20744,0.0136 0.20744,-0.0496 0,-0.0632 -0.0907,-0.11482 -0.20151,-0.11482 -0.16231,0 -0.17229,-0.0288 -0.0513,-0.14817 0.12041,-0.11877 0.18709,-0.10112 0.336,0.0889 0.14454,0.18446 0.17023,0.19188 0.11574,0.0334 -0.0385,-0.11201 -0.019,-0.23518 0.0433,-0.27371 0.0623,-0.0385 0.11174,-0.1336 0.10976,-0.21125 -0.002,-0.0779 -0.0528,-0.0571 -0.11337,0.0465 -0.0749,0.12813 -0.22422,0.17087 -0.47055,0.13472 -0.19844,-0.0291 -0.36079,-0.0928 -0.36079,-0.1416 0,-0.0488 0.12581,-0.0646 0.27959,-0.0352 0.3568,0.0682 0.52717,-0.27711 0.18958,-0.38426 -0.12649,-0.0401 -0.28379,-0.0397 -0.34957,9.5e-4 -0.0658,0.0406 -0.1196,0.0236 -0.1196,-0.0378 0,-0.16252 0.43418,-0.25046 0.56932,-0.11532 0.0745,0.0745 0.1475,0.0592 0.20681,-0.0434 0.0504,-0.0872 0.0479,-0.11883 -0.006,-0.0703 -0.0535,0.0485 -0.17418,-0.0217 -0.26818,-0.15584 -0.094,-0.1342 -0.13148,-0.28055 -0.0833,-0.32523 0.0482,-0.0447 0.11161,-0.014 0.14096,0.0683 0.0806,0.22594 0.47711,0.40941 0.56776,0.26274 0.0414,-0.067 0.0313,-0.11416 -0.0224,-0.10482 -0.31067,0.054 -0.39479,-0.0306 -0.33523,-0.33709 0.0489,-0.25187 0.0402,-0.27269 -0.0384,-0.0915 -0.0991,0.22837 -0.1054,0.2276 -0.24307,-0.0296 -0.12155,-0.22712 -0.11172,-0.26432 0.0703,-0.26588 0.11639,-10e-4 0.29163,-0.0543 0.38942,-0.11838 0.12569,-0.0824 0.0618,-0.0943 -0.21815,-0.0405 -0.38055,0.0731 -0.39457,0.0627 -0.35999,-0.26695 0.0198,-0.18866 -0.005,-0.40967 -0.0555,-0.49112 -0.0583,-0.0943 -0.0243,-0.14811 0.0933,-0.14811 0.10164,0 0.1848,0.08 0.1848,0.17781 0,0.0978 0.0517,0.17781 0.11482,0.17781 0.0632,0 0.0806,-0.0893 0.0387,-0.19839 -0.0577,-0.15029 -0.028,-0.17993 0.12226,-0.12225 0.10912,0.0419 0.19839,0.0245 0.19839,-0.0387 0,-0.0632 -0.0865,-0.11481 -0.19232,-0.11481 -0.15752,0 -0.16562,-0.0322 -0.0448,-0.17781 0.10997,-0.13251 0.11189,-0.17781 0.008,-0.17781 -0.077,0 -0.10441,-0.0577 -0.0609,-0.12815 0.044,-0.0712 0.21839,-0.0968 0.39225,-0.0576 0.26467,0.0596 0.27988,0.0504 0.0984,-0.0596 -0.11806,-0.0716 -0.29208,-0.10038 -0.38672,-0.0641 -0.13428,0.0515 -0.15484,-0.003 -0.0936,-0.24665 0.0648,-0.25829 0.0445,-0.29963 -0.11707,-0.23764 -0.10756,0.0413 -0.19556,0.0234 -0.19556,-0.0398 0,-0.0631 0.07,-0.11482 0.15564,-0.11482 0.0856,0 0.3123,-0.16415 0.50379,-0.36477 0.19149,-0.20062 0.29482,-0.35218 0.22962,-0.3368 -0.19317,0.0456 -0.53744,-0.14435 -0.46732,-0.25781 0.0356,-0.0576 -0.0253,-0.0702 -0.13539,-0.028 -0.14058,0.0539 -0.1821,0.0271 -0.13952,-0.0903 0.0333,-0.0919 0.1246,-0.15241 0.2028,-0.13449 0.0827,0.0189 0.10578,-0.0263 0.0552,-0.10815 -0.0609,-0.0985 -0.15244,-0.0599 -0.30516,0.12873 -0.27697,0.34204 -0.27078,0.0652 0.009,-0.40878 0.18692,-0.31652 0.19098,-0.38493 0.037,-0.62233 -0.0952,-0.14669 -0.13003,-0.26671 -0.0775,-0.26671 0.0526,0 -0.008,-0.0844 -0.13454,-0.18749 -0.19647,-0.16008 -0.19979,-0.17795 -0.0227,-0.12226 0.11409,0.0359 0.20744,0.0136 0.20744,-0.0496 0,-0.0632 -0.0907,-0.11482 -0.20151,-0.11482 -0.16231,0 -0.17229,-0.0288 -0.0513,-0.14818 0.12041,-0.11876 0.18709,-0.10112 0.336,0.0889 0.14454,0.18445 0.17023,0.19187 0.11574,0.0334 -0.0385,-0.11201 -0.019,-0.23518 0.0433,-0.27371 0.0623,-0.0385 0.11174,-0.13359 0.10976,-0.21124 -0.002,-0.078 -0.0528,-0.0571 -0.11337,0.0465 -0.0749,0.12814 -0.22422,0.17088 -0.47055,0.13472 -0.19844,-0.0291 -0.36079,-0.0928 -0.36079,-0.1416 0,-0.0488 0.12581,-0.0646 0.27959,-0.0352 0.3568,0.0682 0.52717,-0.27711 0.18958,-0.38425 -0.12649,-0.0402 -0.28379,-0.0397 -0.34957,9.3e-4 -0.0658,0.0406 -0.1196,0.0236 -0.1196,-0.0378 0,-0.16251 0.43418,-0.25046 0.56932,-0.11532 0.0745,0.0745 0.1475,0.0592 0.20681,-0.0433 0.0504,-0.0872 0.0479,-0.11884 -0.006,-0.0704 -0.0535,0.0485 -0.17418,-0.0216 -0.26818,-0.15584 -0.094,-0.13419 -0.13148,-0.28055 -0.0833,-0.32523 0.0482,-0.0447 0.11161,-0.0139 0.14096,0.0683 0.0806,0.22593 0.47711,0.4094 0.56776,0.26274 0.0414,-0.067 0.0313,-0.11416 -0.0224,-0.10483 -0.31067,0.054 -0.39479,-0.0306 -0.33523,-0.33708 0.0489,-0.25188 0.0402,-0.27269 -0.0384,-0.0915 -0.0991,0.22838 -0.1054,0.22761 -0.24307,-0.0296 -0.12155,-0.22713 -0.11172,-0.26433 0.0703,-0.26589 0.11639,-10e-4 0.29163,-0.0543 0.38942,-0.11837 0.12569,-0.0824 0.0618,-0.0943 -0.21815,-0.0405 -0.38055,0.0731 -0.39457,0.0627 -0.35999,-0.26695 0.0198,-0.18866 -0.005,-0.40966 -0.0555,-0.49112 -0.0583,-0.0942 -0.0243,-0.1481 0.0933,-0.1481 0.10164,0 0.1848,0.08 0.1848,0.17781 0,0.0978 0.0517,0.17781 0.11482,0.17781 0.0632,0 0.0806,-0.0893 0.0387,-0.19839 -0.0577,-0.1503 -0.028,-0.17994 0.12226,-0.12226 0.10912,0.0419 0.19839,0.0245 0.19839,-0.0387 0,-0.0631 -0.0865,-0.11482 -0.19232,-0.11482 -0.15752,0 -0.16562,-0.0322 -0.0448,-0.17781 0.10997,-0.1325 0.11189,-0.17781 0.008,-0.17781 -0.077,0 -0.10441,-0.0577 -0.0609,-0.12814 0.044,-0.0712 0.21839,-0.0968 0.39225,-0.0576 0.26467,0.0596 0.27988,0.0504 0.0984,-0.0596 -0.11806,-0.0716 -0.29208,-0.10037 -0.38672,-0.0641 -0.13428,0.0515 -0.15484,-0.003 -0.0936,-0.24665 0.0648,-0.25828 0.0445,-0.29962 -0.11707,-0.23764 -0.10756,0.0413 -0.19556,0.0234 -0.19556,-0.0398 0,-0.0631 0.07,-0.11482 0.15564,-0.11482 0.0856,0 0.3123,-0.16414 0.50379,-0.36477 0.19149,-0.20062 0.29482,-0.35218 0.22962,-0.3368 -0.19317,0.0456 -0.53744,-0.14434 -0.46732,-0.25781 0.0356,-0.0576 -0.0253,-0.0702 -0.13539,-0.028 -0.14058,0.054 -0.1821,0.0271 -0.13952,-0.0903 0.0333,-0.0919 0.1246,-0.15241 0.2028,-0.13449 0.0827,0.019 0.10578,-0.0263 0.0552,-0.10815 -0.0609,-0.0985 -0.15244,-0.0599 -0.30516,0.12874 -0.27697,0.34204 -0.27078,0.0652 0.009,-0.40878 0.18692,-0.31653 0.19098,-0.38494 0.037,-0.62233 -0.0952,-0.1467 -0.13003,-0.26672 -0.0775,-0.26672 0.0526,0 -0.008,-0.0758 -0.13454,-0.16847 -0.20045,-0.14677 0.35039,-0.17008 4.2744,-0.18094 6.38886,-0.0177 9.78633,0.22541 12.30817,0.88064 1.05748,0.27476 4.11437,1.48448 4.45377,1.76252 0.0915,0.075 0.1982,0.13146 0.23708,0.12553 0.0389,-0.006 0.16855,0.0148 0.28815,0.0461 0.16921,0.0443 0.18236,0.0791 0.0593,0.15714 -0.12241,0.0776 -0.11286,0.10069 0.0422,0.1021 0.11025,9.9e-4 0.23474,0.0573 0.27665,0.1251 0.0492,0.0796 -0.0429,0.0996 -0.25972,0.0566 -0.31482,-0.0626 -0.31839,-0.0591 -0.0568,0.0553 0.18507,0.0809 0.25496,0.18494 0.20744,0.30877 -0.0394,0.10271 -0.0717,0.20738 -0.0717,0.2326 0,0.0252 -0.0934,0.0168 -0.20744,-0.0187 -0.17722,-0.0551 -0.17515,-0.0439 0.0142,0.0768 0.17615,0.11232 0.18896,0.16155 0.0624,0.23977 -0.0952,0.0589 -0.19554,0.0414 -0.24948,-0.0435 -0.0535,-0.0842 -0.091,-0.0909 -0.092,-0.0164 -9.5e-4,0.069 0.0726,0.22728 0.16354,0.35165 0.14345,0.19618 0.13952,0.24796 -0.0296,0.39078 -0.11451,0.0967 -0.063,0.0866 0.12481,-0.0244 0.17754,-0.10492 0.34968,-0.14065 0.38697,-0.0803 0.0369,0.0598 -0.0403,0.14279 -0.17162,0.18448 -0.13134,0.0417 -0.2388,0.12742 -0.2388,0.19052 0,0.0699 0.0927,0.0651 0.23707,-0.0122 0.14022,-0.075 0.23708,-0.0808 0.23708,-0.014 0,0.0621 -0.0667,0.13973 -0.14817,0.17262 -0.0912,0.0368 -0.0711,0.0634 0.0523,0.0692 0.11025,0.005 0.23695,0.0684 0.28156,0.14059 0.0554,0.0896 -0.004,0.10408 -0.18874,0.0456 -0.21418,-0.068 -0.2553,-0.0477 -0.19932,0.0982 0.0388,0.1011 0.007,0.2049 -0.0699,0.23065 -0.0999,0.0333 -0.0892,0.0981 0.0374,0.22462 0.0978,0.0978 0.24401,0.15575 0.32493,0.12878 0.28139,-0.0938 0.14519,0.0958 -0.14924,0.20779 -0.16299,0.062 -0.29634,0.17623 -0.29634,0.2539 0,0.0777 0.0351,0.10614 0.078,0.0632 0.0429,-0.0429 0.15025,-0.018 0.23854,0.0552 0.12128,0.10065 0.12765,0.17288 0.026,0.29532 -0.15698,0.18915 -0.53308,0.21478 -0.63891,0.0435 -0.0403,-0.0652 -0.1368,-0.11692 -0.21444,-0.11494 -0.0777,0.002 -0.0449,0.0596 0.0728,0.12811 0.1806,0.10506 0.18986,0.15541 0.0593,0.32238 -0.13596,0.17386 -0.13138,0.17964 0.0377,0.0477 0.19546,-0.1526 0.57808,-0.0865 0.57808,0.0999 0,0.0562 -0.0746,0.0735 -0.16581,0.0385 -0.20622,-0.0791 -0.35426,0.13851 -0.22977,0.33778 0.13746,0.22004 0.15235,0.44453 0.0295,0.44453 -0.0594,0 -0.10805,0.0565 -0.10805,0.12553 0,0.0691 0.0426,0.0992 0.0946,0.0671 0.052,-0.0321 0.17203,-0.009 0.26672,0.0505 0.14198,0.0898 0.13498,0.10922 -0.0399,0.11072 -0.19484,0.002 -0.19244,0.0229 0.0296,0.26125 0.2898,0.31106 0.30321,0.43564 0.0571,0.53009 -0.10154,0.039 -0.15656,0.14398 -0.12226,0.23336 0.0343,0.0894 -0.003,0.16413 -0.0821,0.16612 -0.0794,0.002 -0.0447,0.0616 0.0772,0.13238 0.17898,0.10399 0.1904,0.1486 0.0593,0.23166 -0.12901,0.0817 -0.12126,0.10325 0.0377,0.10469 0.12534,10e-4 0.19352,0.0889 0.18252,0.2349 -0.0138,0.18304 -0.0822,0.22063 -0.31861,0.17508 l -0.30106,-0.058 0.2791,0.12202 c 0.18507,0.0809 0.25496,0.18495 0.20744,0.30878 -0.0394,0.1027 -0.0717,0.20737 -0.0717,0.23259 0,0.0252 -0.0934,0.0168 -0.20744,-0.0186 -0.17722,-0.0551 -0.17515,-0.0439 0.0142,0.0768 0.17615,0.11232 0.18896,0.16156 0.0624,0.23978 -0.0952,0.0589 -0.19554,0.0414 -0.24948,-0.0435 -0.0535,-0.0842 -0.091,-0.0909 -0.092,-0.0164 -9.5e-4,0.069 0.0726,0.22728 0.16354,0.35166 0.14345,0.19617 0.13952,0.24796 -0.0296,0.39078 -0.11451,0.0967 -0.063,0.0866 0.12481,-0.0244 0.17754,-0.10493 0.34968,-0.14065 0.38697,-0.0803 0.0369,0.0598 -0.0403,0.14279 -0.17162,0.18448 -0.13134,0.0417 -0.2388,0.12741 -0.2388,0.19051 0,0.0699 0.0927,0.0651 0.23707,-0.0122 0.14022,-0.075 0.23708,-0.0808 0.23708,-0.014 0,0.0621 -0.0667,0.13974 -0.14817,0.17262 -0.0912,0.0368 -0.0711,0.0634 0.0523,0.0691 0.11025,0.005 0.23695,0.0684 0.28156,0.1406 0.0554,0.0896 -0.004,0.10408 -0.18874,0.0456 -0.21418,-0.068 -0.2553,-0.0477 -0.19932,0.0982 0.0388,0.10111 0.007,0.2049 -0.0699,0.23065 -0.0999,0.0333 -0.0892,0.0981 0.0374,0.22463 0.0978,0.0978 0.24401,0.15574 0.32493,0.12877 0.28139,-0.0938 0.14519,0.0959 -0.14924,0.2078 -0.16299,0.062 -0.29634,0.17622 -0.29634,0.2539 0,0.0777 0.0351,0.10613 0.078,0.0632 0.0429,-0.0429 0.15025,-0.018 0.23854,0.0552 0.12128,0.10066 0.12765,0.17288 0.026,0.29532 -0.15698,0.18915 -0.53308,0.21478 -0.63891,0.0435 -0.0403,-0.0652 -0.1368,-0.11692 -0.21444,-0.11494 -0.0777,0.002 -0.0449,0.0596 0.0728,0.12811 0.1806,0.10506 0.18986,0.1554 0.0593,0.32238 -0.13596,0.17385 -0.13138,0.17964 0.0377,0.0476 0.19546,-0.15259 0.57808,-0.0865 0.57808,0.0999 0,0.0562 -0.0746,0.0735 -0.16581,0.0385 -0.20622,-0.0791 -0.35426,0.13851 -0.22977,0.33779 0.13746,0.22003 0.15235,0.44452 0.0295,0.44452 -0.0594,0 -0.10805,0.0565 -0.10805,0.12554 0,0.069 0.0426,0.0992 0.0946,0.0671 0.052,-0.0322 0.17203,-0.009 0.26672,0.0505 0.14195,0.0898 0.13491,0.10922 -0.0401,0.11072 -0.18268,0.002 -0.1703,0.047 0.0889,0.32658 0.29862,0.32206 0.38332,0.51798 0.21224,0.49097 -0.26898,-0.0425 -0.4034,0.0329 -0.34239,0.19185 0.0375,0.0978 0.003,0.17943 -0.0762,0.18141 -0.0794,0.002 -0.0447,0.0616 0.0772,0.13239 0.17898,0.10399 0.1904,0.14859 0.0593,0.23166 -0.12901,0.0817 -0.12126,0.10325 0.0377,0.10469 0.12534,10e-4 0.19352,0.0889 0.18252,0.2349 -0.0138,0.18303 -0.0822,0.22063 -0.31861,0.17508 l -0.30106,-0.058 0.2791,0.12203 c 0.18507,0.0809 0.25496,0.18495 0.20744,0.30877 -0.0394,0.10271 -0.0717,0.20738 -0.0717,0.2326 0,0.0252 -0.0934,0.0168 -0.20744,-0.0186 -0.17722,-0.0551 -0.17515,-0.0439 0.0142,0.0768 0.17615,0.11232 0.18896,0.16155 0.0624,0.23977 -0.0952,0.0589 -0.19554,0.0414 -0.24948,-0.0435 -0.0535,-0.0842 -0.091,-0.0909 -0.092,-0.0164 -9.5e-4,0.069 0.0726,0.22728 0.16354,0.35166 0.14345,0.19617 0.13952,0.24795 -0.0296,0.39078 -0.11451,0.0967 -0.063,0.0866 0.12481,-0.0244 0.17754,-0.10492 0.34968,-0.14065 0.38697,-0.0803 0.0369,0.0598 -0.0403,0.1428 -0.17162,0.18448 -0.13134,0.0417 -0.2388,0.12742 -0.2388,0.19052 0,0.0699 0.0927,0.0651 0.23707,-0.0122 0.14022,-0.0751 0.23708,-0.0808 0.23708,-0.014 0,0.0621 -0.0667,0.13974 -0.14817,0.17262 -0.0912,0.0368 -0.0711,0.0634 0.0523,0.0691 0.11025,0.005 0.23695,0.0684 0.28156,0.1406 0.0554,0.0896 -0.004,0.10407 -0.18874,0.0456 -0.21418,-0.068 -0.2553,-0.0477 -0.19932,0.0982 0.0388,0.1011 0.007,0.2049 -0.0699,0.23065 -0.0999,0.0333 -0.0892,0.0981 0.0374,0.22462 0.0978,0.0978 0.24401,0.15575 0.32493,0.12878 0.28139,-0.0938 0.14519,0.0959 -0.14924,0.20779 -0.16299,0.062 -0.29634,0.17623 -0.29634,0.25391 0,0.0777 0.0351,0.10613 0.078,0.0632 0.0429,-0.0429 0.15025,-0.018 0.23854,0.0552 0.12128,0.10065 0.12765,0.17288 0.026,0.29532 -0.15698,0.18915 -0.53308,0.21478 -0.63891,0.0435 -0.0403,-0.0652 -0.1368,-0.11692 -0.21444,-0.11493 -0.0777,0.002 -0.0449,0.0596 0.0728,0.1281 0.1806,0.10507 0.18986,0.15541 0.0593,0.32238 -0.13596,0.17386 -0.13138,0.17964 0.0377,0.0477 0.19546,-0.15259 0.57808,-0.0865 0.57808,0.0999 0,0.0562 -0.0746,0.0735 -0.16581,0.0385 -0.20622,-0.0791 -0.35426,0.13851 -0.22977,0.33778 0.13746,0.22004 0.15235,0.44453 0.0295,0.44453 -0.0594,0 -0.10805,0.0565 -0.10805,0.12553 0,0.069 0.0426,0.0992 0.0946,0.0671 0.052,-0.0321 0.16834,-0.0128 0.25851,0.0429 0.11622,0.0718 0.0455,0.11948 -0.24274,0.16368 -0.22367,0.0343 -0.4867,0.0603 -0.58449,0.0577 -0.0978,-0.003 -1.08464,0.0531 -2.19299,0.12362 -2.5459,0.16208 -7.29834,0.3678 -8.49655,0.3678 -0.50234,0 -0.94463,-0.0506 -0.98285,-0.11245 z m 12.26509,-2.37688 c -0.0978,-0.0632 -0.23116,-0.11491 -0.29635,-0.11491 -0.0652,0 -0.0385,0.0517 0.0593,0.11491 0.0978,0.0632 0.23115,0.11491 0.29635,0.11491 0.0652,0 0.0385,-0.0517 -0.0593,-0.11491 z m 0,-0.28183 c 0,-0.0246 -0.0933,-0.11797 -0.20745,-0.20745 -0.18801,-0.14745 -0.1922,-0.14325 -0.0448,0.0448 0.15485,0.19746 0.2522,0.26025 0.2522,0.16269 z m -0.10383,-0.57956 c -0.11708,-0.1162 -0.13069,-0.10258 -0.0664,0.0664 0.0445,0.11691 0.11079,0.1827 0.14729,0.1462 0.0365,-0.0365 8e-5,-0.13215 -0.0809,-0.21256 z m -0.0841,-0.79647 c -0.0768,-0.0768 -0.11685,-0.0367 -0.11685,0.11685 0,0.15353 0.0401,0.19361 0.11685,0.11684 0.0768,-0.0768 0.0768,-0.15692 0,-0.23369 z m 0.18433,-2.55029 c 0,-0.0652 -0.0517,-0.0385 -0.1149,0.0593 -0.0632,0.0978 -0.11491,0.23115 -0.11491,0.29634 0,0.0652 0.0517,0.0385 0.11491,-0.0593 0.0632,-0.0978 0.1149,-0.23115 0.1149,-0.29634 z m 0.32715,0.34327 c -0.0394,-0.0394 -0.14163,-0.0436 -0.2272,-0.009 -0.0946,0.0378 -0.0665,0.0659 0.0716,0.0716 0.12496,0.005 0.19497,-0.0229 0.15558,-0.0623 z m -0.33506,-0.92776 c -0.0312,-0.0312 -0.12732,0.0609 -0.21363,0.20462 -0.14995,0.24968 -0.14742,0.25221 0.0567,0.0567 0.1175,-0.11254 0.18812,-0.23013 0.15693,-0.26132 z m -0.28167,-0.0446 c -0.0365,-0.0365 -0.13214,-7e-5 -0.21255,0.0809 -0.1162,0.11707 -0.10259,0.13069 0.0663,0.0664 0.11691,-0.0445 0.1827,-0.1108 0.1462,-0.1473 z m 0.41176,-0.51104 c 0,-0.0652 -0.0534,-0.0856 -0.11854,-0.0453 -0.0652,0.0403 -0.11854,0.1266 -0.11854,0.1918 0,0.0652 0.0533,0.0856 0.11854,0.0453 0.0652,-0.0403 0.11854,-0.12661 0.11854,-0.1918 z m -20.81592,-0.0848 c 0.0336,-0.0543 -0.0143,-0.0988 -0.10633,-0.0988 -0.0921,0 -0.1399,0.0444 -0.10633,0.0988 0.0336,0.0543 0.0814,0.0988 0.10633,0.0988 0.0249,0 0.0728,-0.0444 0.10633,-0.0988 z m -0.34341,-0.25684 c 0.0403,-0.0652 0.0168,-0.11854 -0.0523,-0.11854 -0.069,0 -0.12554,0.0533 -0.12554,0.11854 0,0.0652 0.0235,0.11854 0.0523,0.11854 0.0288,0 0.0852,-0.0533 0.12553,-0.11854 z m 0.35478,-0.35426 c 0.0415,-0.0672 -0.006,-0.0871 -0.11154,-0.0466 -0.20536,0.0788 -0.24293,0.16377 -0.0724,0.16377 0.0614,0 0.14413,-0.0527 0.18396,-0.11718 z m -0.24845,-0.25819 c -0.0336,-0.0543 -0.11124,-0.0988 -0.17259,-0.0988 -0.0614,0 -0.11155,0.0444 -0.11155,0.0988 0,0.0543 0.0777,0.0988 0.1726,0.0988 0.0949,0 0.14512,-0.0444 0.11154,-0.0988 z m 0.19002,-0.27128 c 0,-0.0915 -0.3528,-0.16504 -0.40288,-0.084 -0.0302,0.0488 0.0481,0.0965 0.17402,0.106 0.12587,0.009 0.22886,-3.6e-4 0.22886,-0.022 z m 0.0471,-0.40045 c 0.0336,-0.0543 -0.0143,-0.0988 -0.10633,-0.0988 -0.0921,0 -0.1399,0.0444 -0.10633,0.0988 0.0336,0.0543 0.0814,0.0988 0.10633,0.0988 0.0249,0 0.0728,-0.0444 0.10633,-0.0988 z m 20.69738,-0.61245 c -0.0978,-0.0632 -0.23116,-0.11491 -0.29635,-0.11491 -0.0652,0 -0.0385,0.0517 0.0593,0.11491 0.0978,0.0632 0.23115,0.1149 0.29635,0.1149 0.0652,0 0.0385,-0.0517 -0.0593,-0.1149 z m -20.86298,-0.17082 c 0,-0.0288 -0.0533,-0.0852 -0.11854,-0.12553 -0.0652,-0.0403 -0.11854,-0.0168 -0.11854,0.0523 0,0.069 0.0533,0.12554 0.11854,0.12554 0.0652,0 0.11854,-0.0235 0.11854,-0.0523 z m 20.86298,-0.11102 c 0,-0.0246 -0.0933,-0.11796 -0.20745,-0.20744 -0.18801,-0.14745 -0.1922,-0.14326 -0.0448,0.0448 0.15485,0.19746 0.2522,0.26025 0.2522,0.16269 z m -0.10383,-0.57955 c -0.11708,-0.1162 -0.13069,-0.10259 -0.0664,0.0664 0.0445,0.1169 0.11079,0.18269 0.14729,0.14619 0.0365,-0.0365 8e-5,-0.13214 -0.0809,-0.21255 z m -20.74444,-0.35562 c -0.11707,-0.1162 -0.13069,-0.10259 -0.0664,0.0664 0.0445,0.1169 0.1108,0.18269 0.1473,0.1462 0.0365,-0.0365 7e-5,-0.13215 -0.0809,-0.21256 z m 20.6603,-0.44085 c -0.0768,-0.0768 -0.11685,-0.0367 -0.11685,0.11684 0,0.15354 0.0401,0.19362 0.11685,0.11685 0.0768,-0.0768 0.0768,-0.15693 0,-0.23369 z m -21.07014,-0.29805 c 0,-0.0978 -0.0444,-0.17781 -0.0988,-0.17781 -0.0543,0 -0.0988,0.08 -0.0988,0.17781 0,0.0978 0.0445,0.17781 0.0988,0.17781 0.0543,0 0.0988,-0.08 0.0988,-0.17781 z m 0.43604,-0.24219 c -0.0386,-0.10061 -0.0956,-0.1575 -0.12669,-0.12643 -0.0311,0.0311 -0.0213,0.11339 0.0216,0.18293 0.11688,0.18912 0.1852,0.15238 0.10505,-0.0565 z m 0.13606,-1.59381 c 0.0415,-0.0672 -0.006,-0.0871 -0.11154,-0.0466 -0.20536,0.0788 -0.24293,0.16377 -0.0724,0.16377 0.0614,0 0.14413,-0.0527 0.18396,-0.11718 z m 20.68237,-0.41625 c 0,-0.0652 -0.0517,-0.0385 -0.1149,0.0593 -0.0632,0.0978 -0.11491,0.23115 -0.11491,0.29635 0,0.0652 0.0517,0.0385 0.11491,-0.0593 0.0632,-0.0978 0.1149,-0.23115 0.1149,-0.29635 z m 0.32715,0.34327 c -0.0394,-0.0394 -0.14163,-0.0436 -0.2272,-0.009 -0.0946,0.0378 -0.0665,0.0659 0.0716,0.0716 0.12496,0.005 0.19497,-0.0229 0.15558,-0.0623 z m -0.33506,-0.92775 c -0.0312,-0.0312 -0.12732,0.0609 -0.21363,0.20462 -0.14995,0.24968 -0.14742,0.2522 0.0567,0.0567 0.1175,-0.11254 0.18812,-0.23014 0.15693,-0.26132 z m -0.28167,-0.0446 c -0.0365,-0.0365 -0.13214,-8e-5 -0.21255,0.0809 -0.1162,0.11707 -0.10259,0.13069 0.0663,0.0664 0.11691,-0.0445 0.1827,-0.1108 0.1462,-0.14729 z m 0.41176,-0.51105 c 0,-0.0652 -0.0534,-0.0856 -0.11854,-0.0453 -0.0652,0.0403 -0.11854,0.12661 -0.11854,0.1918 0,0.0652 0.0533,0.0856 0.11854,0.0453 0.0652,-0.0403 0.11854,-0.1266 0.11854,-0.1918 z m -20.81592,-0.0848 c 0.0336,-0.0543 -0.0143,-0.0988 -0.10633,-0.0988 -0.0921,0 -0.1399,0.0444 -0.10633,0.0988 0.0336,0.0543 0.0814,0.0988 0.10633,0.0988 0.0249,0 0.0728,-0.0444 0.10633,-0.0988 z m -0.34341,-0.25684 c 0.0403,-0.0652 0.0168,-0.11854 -0.0523,-0.11854 -0.069,0 -0.12554,0.0534 -0.12554,0.11854 0,0.0652 0.0235,0.11854 0.0523,0.11854 0.0288,0 0.0852,-0.0533 0.12553,-0.11854 z m 0.35478,-0.35426 c 0.0415,-0.0672 -0.006,-0.0871 -0.11154,-0.0466 -0.20536,0.0788 -0.24293,0.16377 -0.0724,0.16377 0.0614,0 0.14413,-0.0527 0.18396,-0.11719 z m -0.24845,-0.25819 c -0.0336,-0.0543 -0.11124,-0.0988 -0.17259,-0.0988 -0.0614,0 -0.11155,0.0444 -0.11155,0.0988 0,0.0543 0.0777,0.0988 0.1726,0.0988 0.0949,0 0.14512,-0.0444 0.11154,-0.0988 z m 0.19002,-0.27128 c 0,-0.0915 -0.3528,-0.16504 -0.40288,-0.084 -0.0302,0.0488 0.0481,0.0965 0.17402,0.10599 0.12587,0.009 0.22886,-4.1e-4 0.22886,-0.022 z m 0.0471,-0.40044 c 0.0336,-0.0543 -0.0143,-0.0988 -0.10633,-0.0988 -0.0921,0 -0.1399,0.0444 -0.10633,0.0988 0.0336,0.0543 0.0814,0.0988 0.10633,0.0988 0.0249,0 0.0728,-0.0445 0.10633,-0.0988 z m 20.69738,-0.61246 c -0.0978,-0.0632 -0.23116,-0.11491 -0.29635,-0.11491 -0.0652,0 -0.0385,0.0517 0.0593,0.11491 0.0978,0.0632 0.23115,0.11491 0.29635,0.11491 0.0652,0 0.0385,-0.0517 -0.0593,-0.11491 z m -20.86298,-0.17081 c 0,-0.0288 -0.0533,-0.0852 -0.11854,-0.12554 -0.0652,-0.0403 -0.11854,-0.0168 -0.11854,0.0523 0,0.069 0.0533,0.12553 0.11854,0.12553 0.0652,0 0.11854,-0.0235 0.11854,-0.0523 z m 20.86298,-0.11102 c 0,-0.0246 -0.0933,-0.11797 -0.20745,-0.20745 -0.18801,-0.14745 -0.1922,-0.14325 -0.0448,0.0448 0.15485,0.19745 0.2522,0.26025 0.2522,0.16269 z m -0.10383,-0.57956 c -0.11708,-0.1162 -0.13069,-0.10258 -0.0664,0.0664 0.0445,0.11691 0.11079,0.1827 0.14729,0.1462 0.0365,-0.0365 8e-5,-0.13215 -0.0809,-0.21256 z m -20.74444,-0.35562 c -0.11707,-0.1162 -0.13069,-0.10258 -0.0664,0.0664 0.0445,0.11691 0.1108,0.1827 0.1473,0.1462 0.0365,-0.0365 7e-5,-0.13215 -0.0809,-0.21256 z m 20.6603,-0.44085 c -0.0768,-0.0768 -0.11685,-0.0367 -0.11685,0.11685 0,0.15353 0.0401,0.19361 0.11685,0.11684 0.0768,-0.0768 0.0768,-0.15692 0,-0.23369 z m -21.07014,-0.29804 c 0,-0.0978 -0.0444,-0.17781 -0.0988,-0.17781 -0.0543,0 -0.0988,0.08 -0.0988,0.17781 0,0.0978 0.0445,0.17781 0.0988,0.17781 0.0543,0 0.0988,-0.08 0.0988,-0.17781 z m 0.43604,-0.24219 c -0.0386,-0.10061 -0.0956,-0.1575 -0.12669,-0.12643 -0.0311,0.0311 -0.0213,0.11339 0.0216,0.18292 0.11688,0.18913 0.1852,0.15238 0.10505,-0.0565 z m 0.13606,-1.59382 c 0.0415,-0.0672 -0.006,-0.0871 -0.11154,-0.0466 -0.20536,0.0788 -0.24293,0.16377 -0.0724,0.16377 0.0614,0 0.14413,-0.0527 0.18396,-0.11718 z m -0.0114,-1.64116 c 0.0336,-0.0543 -0.0143,-0.0988 -0.10633,-0.0988 -0.0921,0 -0.1399,0.0444 -0.10633,0.0988 0.0336,0.0543 0.0814,0.0988 0.10633,0.0988 0.0249,0 0.0728,-0.0445 0.10633,-0.0988 z m -0.34341,-0.25683 c 0.0403,-0.0652 0.0168,-0.11854 -0.0523,-0.11854 -0.069,0 -0.12554,0.0533 -0.12554,0.11854 0,0.0652 0.0235,0.11854 0.0523,0.11854 0.0288,0 0.0852,-0.0533 0.12553,-0.11854 z m 0.35478,-0.35426 c 0.0415,-0.0672 -0.006,-0.0871 -0.11154,-0.0466 -0.20536,0.0788 -0.24293,0.16377 -0.0724,0.16377 0.0614,0 0.14413,-0.0527 0.18396,-0.11718 z m -0.24845,-0.2582 c -0.0791,-0.12802 -0.28414,-0.12802 -0.28414,0 0,0.0543 0.0777,0.0988 0.1726,0.0988 0.0949,0 0.14512,-0.0445 0.11154,-0.0988 z m 0.19002,-0.27127 c 0,-0.0915 -0.3528,-0.16504 -0.40288,-0.084 -0.0302,0.0488 0.0481,0.0965 0.17402,0.106 0.12587,0.009 0.22886,-4.1e-4 0.22886,-0.022 z"
       id="path1606"
       transform="scale(0.26458333)" />
    <path
       style="fill:#c83737;stroke:#000000;stroke-width:0.11854"
       d="m 392.72175,811.31027 c -0.0652,-0.079 -0.13528,-0.31703 -0.15575,-0.52892 -0.0282,-0.29242 0.009,-0.38525 0.15616,-0.38525 0.13944,0 0.17239,-0.0661 0.11813,-0.23708 -0.0432,-0.136 -0.0213,-0.23708 0.0513,-0.23708 0.0696,0 0.12652,-0.13336 0.12652,-0.29635 0,-0.16299 -0.0652,-0.29635 -0.14491,-0.29635 -0.0797,0 -0.0264,-0.083 0.11854,-0.18453 0.32734,-0.22928 0.3389,-0.40817 0.0264,-0.40817 -0.16031,0 -0.23708,-0.079 -0.23708,-0.24407 0,-0.13424 0.0533,-0.21111 0.11854,-0.17081 0.2412,0.14906 0.33687,-0.0683 0.17047,-0.38727 -0.0929,-0.17818 -0.16933,-0.39065 -0.16974,-0.47215 -4e-4,-0.0815 -0.0763,-0.14817 -0.16866,-0.14817 -0.23073,0 -0.30255,-0.27017 -0.11028,-0.41489 0.0866,-0.0652 0.17764,-0.27857 0.20226,-0.47416 0.0246,-0.19559 0.0843,-0.44938 0.13267,-0.56398 0.0532,-0.12601 0.0125,-0.32346 -0.10295,-0.49962 -0.25355,-0.38696 -0.24065,-0.53668 0.0462,-0.53668 0.27648,0 0.30576,-0.21639 0.0725,-0.53544 -0.0905,-0.12383 -0.13835,-0.2936 -0.10624,-0.37728 0.0321,-0.0837 -0.0138,-0.17997 -0.10209,-0.21398 -0.23987,-0.0924 -0.27022,-0.88848 -0.0339,-0.88848 0.13179,0 0.16388,-0.0689 0.11048,-0.23708 -0.0432,-0.136 -0.0213,-0.23707 0.0513,-0.23707 0.0696,0 0.12652,-0.13336 0.12652,-0.29635 0,-0.163 -0.0652,-0.29635 -0.14491,-0.29635 -0.0797,0 -0.0264,-0.083 0.11854,-0.18453 0.32734,-0.22928 0.3389,-0.40817 0.0264,-0.40817 -0.16031,0 -0.23708,-0.079 -0.23708,-0.24408 0,-0.13424 0.0533,-0.2111 0.11854,-0.17081 0.2412,0.14906 0.33687,-0.0683 0.17047,-0.38726 -0.0929,-0.17819 -0.16933,-0.39066 -0.16974,-0.47215 -4e-4,-0.0815 -0.075,-0.14818 -0.16585,-0.14818 -0.20504,0 -0.34397,-0.32421 -0.16456,-0.38402 0.11942,-0.0398 0.15374,-0.12926 0.26199,-0.68283 0.0191,-0.0978 0.0735,-0.2684 0.12083,-0.37912 0.0516,-0.1206 -10e-4,-0.34986 -0.13171,-0.57186 -0.21138,-0.35969 -0.21137,-0.37527 4.2e-4,-0.53086 0.16211,-0.1191 0.19422,-0.23111 0.12494,-0.43573 -0.0513,-0.15148 -0.0803,-0.34281 -0.0645,-0.42518 0.0158,-0.0824 -0.0404,-0.17642 -0.12494,-0.20902 -0.23514,-0.0906 -0.2595,-0.88588 -0.0271,-0.88588 0.13179,0 0.16388,-0.0689 0.11048,-0.23708 -0.0432,-0.136 -0.0213,-0.23708 0.0513,-0.23708 0.0696,0 0.12652,-0.13336 0.12652,-0.29635 0,-0.16299 -0.0652,-0.29635 -0.14491,-0.29635 -0.0797,0 -0.0264,-0.083 0.11854,-0.18453 0.32734,-0.22928 0.3389,-0.40817 0.0264,-0.40817 -0.16031,0 -0.23708,-0.079 -0.23708,-0.24407 0,-0.13424 0.0533,-0.21111 0.11854,-0.17082 0.2412,0.14907 0.33687,-0.0683 0.17047,-0.38726 -0.0929,-0.17818 -0.16933,-0.39065 -0.16974,-0.47215 -4e-4,-0.0815 -0.075,-0.14817 -0.16585,-0.14817 -0.24139,0 -0.32612,-0.3237 -0.10677,-0.40787 0.10301,-0.0395 0.15752,-0.10164 0.12114,-0.13802 -0.0364,-0.0364 0.007,-0.24047 0.0957,-0.45352 0.12202,-0.29204 0.12829,-0.42095 0.0255,-0.52376 -0.23228,-0.23229 -0.0461,-0.16365 2.06415,0.76116 3.20057,1.40262 6.1328,2.93639 8.74915,4.57647 1.5399,0.96529 3.21078,2.24264 3.12184,2.38656 -0.0402,0.065 -0.0195,0.0851 0.046,0.0446 0.0655,-0.0405 0.2951,0.13619 0.51023,0.3926 0.21512,0.25641 0.4328,0.44045 0.48372,0.40897 0.0509,-0.0315 0.1261,-0.003 0.16705,0.0633 0.0409,0.0663 -0.009,0.12047 -0.11035,0.12047 -0.15406,0 -0.14783,0.037 0.0375,0.22227 0.12224,0.12224 0.29561,0.25139 0.38525,0.28699 0.1168,0.0464 0.10525,0.0674 -0.0407,0.0741 -0.13427,0.006 -0.17954,0.0724 -0.13278,0.19424 0.0474,0.1235 -0.0129,0.20681 -0.18153,0.25091 -0.13886,0.0363 -0.25655,0.0998 -0.26154,0.1411 -0.005,0.0413 -0.0277,0.17332 -0.0504,0.29339 -0.0227,0.12007 -0.005,0.1823 0.0387,0.13829 0.044,-0.044 0.08,-0.14224 0.08,-0.2183 0,-0.19474 0.32434,-0.17284 0.39075,0.0264 0.0333,0.1 0.002,0.13214 -0.079,0.0819 -0.0736,-0.0455 -0.13391,-0.0263 -0.13391,0.0428 0,0.069 0.0552,0.12554 0.12271,0.12554 0.0844,0 0.0846,0.0713 4.7e-4,0.22849 -0.0673,0.12567 -0.0867,0.32112 -0.0433,0.43434 0.0538,0.14012 0.0347,0.17848 -0.0597,0.12013 -0.0763,-0.0471 -0.13873,-0.0292 -0.13873,0.0398 0,0.0691 0.0565,0.12554 0.12553,0.12554 0.0691,0 0.092,0.0542 0.0511,0.12047 -0.041,0.0663 -0.12411,0.0898 -0.18481,0.0523 -0.15969,-0.0987 -0.12859,0.0896 0.0547,0.33105 0.18314,0.24126 0.4999,0.27329 0.58626,0.0593 0.0357,-0.0885 0.0635,-0.0647 0.0691,0.0593 0.005,0.11409 -0.0707,0.21411 -0.16846,0.22226 -0.0978,0.008 -0.28005,0.0215 -0.40501,0.0296 -0.12496,0.008 -0.27165,0.0593 -0.32598,0.11377 -0.0543,0.0544 0.14126,0.0668 0.43465,0.0276 0.41248,-0.0552 0.48552,-0.0422 0.32214,0.0573 -0.1162,0.0707 -0.37278,0.13322 -0.57018,0.13883 -0.19739,0.006 -0.2989,0.0473 -0.22558,0.0926 0.0733,0.0453 0.26323,0.0576 0.42201,0.0272 0.17615,-0.0337 0.28868,2.4e-4 0.28868,0.087 0,0.0782 -0.0667,0.11833 -0.14817,0.0891 -0.18803,-0.0674 -0.56306,0.12114 -0.56306,0.28309 0,0.0676 0.0838,0.039 0.18627,-0.0634 0.16899,-0.16898 0.2035,-0.16906 0.37171,-8.3e-4 0.13371,0.13371 0.14943,0.22143 0.0564,0.31451 -0.0881,0.0881 -0.0915,0.19927 -0.0106,0.35044 0.12652,0.23641 0.0402,0.49919 -0.12957,0.39428 -0.19534,-0.12072 -0.22834,0.14429 -0.0458,0.36779 0.16072,0.19679 0.17553,0.19898 0.11846,0.0175 -0.0426,-0.1355 -0.002,-0.20745 0.11586,-0.20745 0.0996,0 0.14963,0.0509 0.11119,0.11309 -0.0384,0.0622 -0.0354,0.25033 0.007,0.41808 0.065,0.25903 0.10419,0.28218 0.25998,0.15362 0.15224,-0.12561 0.17345,-0.12111 0.1247,0.0265 -0.078,0.23616 -0.45397,0.30373 -0.45397,0.0816 0,-0.0951 -0.1467,-0.26834 -0.32599,-0.38502 -0.236,-0.15359 -0.28537,-0.16252 -0.17884,-0.0324 0.0809,0.0989 0.10761,0.22338 0.0593,0.27667 -0.0483,0.0533 0.0118,0.061 0.13372,0.017 0.18379,-0.0662 0.21086,-0.0341 0.15868,0.18856 -0.0346,0.14763 -0.0927,0.39584 -0.12905,0.55158 -0.0423,0.181 0.021,0.40553 0.17538,0.62233 0.13283,0.18655 0.18286,0.33918 0.11118,0.33918 -0.0717,0 -0.16104,-0.08 -0.19857,-0.17781 -0.0375,-0.0978 -0.14253,-0.17781 -0.23335,-0.17781 -0.18715,0 0.15667,0.39579 0.44238,0.50925 0.1168,0.0464 0.10526,0.0674 -0.0407,0.0741 -0.13427,0.006 -0.17954,0.0724 -0.13278,0.19424 0.0474,0.12349 -0.0129,0.2068 -0.18153,0.2509 -0.13886,0.0363 -0.25655,0.0998 -0.26154,0.1411 -0.005,0.0413 -0.0277,0.17332 -0.0504,0.29339 -0.0227,0.12007 -0.005,0.1823 0.0387,0.1383 0.044,-0.044 0.08,-0.14225 0.08,-0.21831 0,-0.19473 0.32435,-0.17284 0.39075,0.0264 0.0333,0.1 0.002,0.13214 -0.079,0.0819 -0.0737,-0.0455 -0.13392,-0.0263 -0.13392,0.0428 0,0.069 0.0552,0.12553 0.12271,0.12553 0.0844,0 0.0846,0.0713 4.7e-4,0.22849 -0.0673,0.12567 -0.0867,0.32112 -0.0433,0.43434 0.0538,0.14013 0.0347,0.17848 -0.0597,0.12013 -0.0763,-0.0472 -0.13872,-0.0292 -0.13872,0.0398 0,0.069 0.0565,0.12553 0.12553,0.12553 0.0691,0 0.092,0.0542 0.0511,0.12047 -0.041,0.0663 -0.13318,0.0842 -0.20495,0.0398 -0.0823,-0.0509 -0.1042,-0.0121 -0.0592,0.10502 0.0995,0.25922 -0.0333,0.35375 -0.25025,0.17818 -0.1089,-0.0881 -0.14984,-0.0937 -0.10206,-0.014 0.0526,0.0878 -0.11135,0.15771 -0.48104,0.20512 -2.82528,0.36231 -12.58779,1.2643 -13.60017,1.25657 -0.26078,-0.002 -0.5275,-0.0683 -0.5927,-0.14729 z m 15.17621,-2.55083 c -0.0365,-0.0365 -0.13214,-8e-5 -0.21255,0.0809 -0.1162,0.11708 -0.10259,0.13069 0.0663,0.0664 0.11691,-0.0445 0.1827,-0.11079 0.1462,-0.14729 z m 0.14257,-0.92429 c -0.0394,-0.0394 -0.14163,-0.0436 -0.2272,-0.009 -0.0946,0.0378 -0.0665,0.0659 0.0716,0.0716 0.12496,0.005 0.19497,-0.0229 0.15558,-0.0623 z m -0.124,-0.42477 c -0.0378,-0.0946 -0.0659,-0.0665 -0.0716,0.0716 -0.005,0.12496 0.0229,0.19497 0.0623,0.15558 0.0394,-0.0394 0.0436,-0.14163 0.009,-0.2272 z m -0.12264,-1.10076 c -0.0371,-0.0967 0.023,-0.22503 0.13451,-0.28746 0.11084,-0.062 0.15797,-0.15635 0.10472,-0.20959 -0.0532,-0.0533 -0.14756,-0.006 -0.20959,0.10472 -0.0693,0.1239 -0.188,0.17267 -0.30804,0.12661 -0.15895,-0.061 -0.15286,-0.0289 0.0328,0.17285 0.27677,0.30076 0.33366,0.32226 0.24563,0.0929 z m -0.10735,-0.68325 c 0.0151,-0.19998 -0.006,-0.22324 -0.0855,-0.0946 -0.058,0.0939 -0.0792,0.21321 -0.047,0.26522 0.0894,0.14469 0.11085,0.11711 0.13252,-0.17066 z m 0.35307,-1.24108 c -0.16944,-0.16944 -0.22661,-0.17624 -0.35138,-0.0418 -0.12204,0.13147 -0.11146,0.14732 0.0584,0.0875 0.1141,-0.0401 0.20745,-0.0213 0.20745,0.0418 0,0.0631 0.0648,0.11482 0.14394,0.11482 0.0901,0 0.0682,-0.0757 -0.0584,-0.20237 z m -0.59165,-0.38212 c -0.009,-0.12588 -0.0572,-0.20418 -0.10599,-0.17401 -0.0488,0.0302 -0.0587,0.13316 -0.022,0.22887 0.0926,0.24133 0.14848,0.21738 0.12797,-0.0549 z m 0.56541,-0.008 c 0.15632,-0.0672 0.17651,-0.1041 0.0593,-0.10839 -0.0978,-0.004 -0.25783,0.0452 -0.35562,0.10839 -0.21669,0.14003 -0.0295,0.14003 0.29635,0 z m -0.18769,-1.33748 c -0.0272,-0.0184 -0.15608,-0.1118 -0.28647,-0.20744 -0.2193,-0.16086 -0.22488,-0.15835 -0.0744,0.0335 0.0895,0.11409 0.21839,0.20744 0.28647,0.20744 0.0681,0 0.10155,-0.0151 0.0744,-0.0335 z m 0.0723,-1.48458 c -0.0365,-0.0365 -0.13214,-7e-5 -0.21255,0.0809 -0.1162,0.11707 -0.10259,0.13069 0.0663,0.0664 0.11691,-0.0445 0.1827,-0.1108 0.1462,-0.1473 z m 0.14257,-0.92429 c -0.0394,-0.0394 -0.14163,-0.0436 -0.2272,-0.009 -0.0946,0.0378 -0.0665,0.0659 0.0716,0.0716 0.12496,0.005 0.19497,-0.0229 0.15558,-0.0623 z m -0.124,-0.42476 c -0.0378,-0.0946 -0.0659,-0.0665 -0.0716,0.0716 -0.005,0.12497 0.0229,0.19498 0.0623,0.15559 0.0394,-0.0394 0.0436,-0.14163 0.009,-0.2272 z"
       id="path1608"
       transform="scale(0.26458333)" />
    <path
       style="fill:#c83737;stroke:#000000;stroke-width:0.11854"
       d="m 407.83556,809.97995 c 0,-0.0501 0.0737,-0.15037 0.16374,-0.22275 0.20007,-0.16081 0.36057,-1.44982 0.19339,-1.55315 -0.0715,-0.0442 -0.0372,-0.19507 0.0879,-0.38587 0.20809,-0.3176 0.21618,-0.70793 0.0189,-0.91307 -0.0596,-0.0619 -0.1083,-0.31364 -0.1083,-0.55935 0,-0.35006 0.0388,-0.43184 0.17932,-0.37791 0.21275,0.0816 0.53192,-0.15377 0.53192,-0.39232 0,-0.0947 -0.0908,-0.15324 -0.20744,-0.13366 -0.13605,0.0229 -0.21331,-0.0468 -0.22448,-0.20224 -0.009,-0.1304 -0.0313,-0.29043 -0.0488,-0.35562 -0.0695,-0.25964 -0.0512,-1.71883 0.0216,-1.71883 0.11505,0 0.24109,-0.58444 0.1558,-0.72244 -0.0474,-0.0766 -0.13464,-0.0681 -0.24573,0.0241 -0.22868,0.18979 -0.49766,-0.0443 -0.31561,-0.27462 0.17665,-0.22353 0.29792,-1.48634 0.15143,-1.57687 -0.0741,-0.0458 -0.0194,-0.21721 0.14133,-0.44296 l 0.26222,-0.36825 0.61008,0.67132 c 0.33555,0.36923 1.05459,1.29882 1.59789,2.06576 0.54329,0.76694 1.58273,2.19458 2.30987,3.17253 1.50514,2.02431 2.35361,3.25722 2.28724,3.32359 -0.0466,0.0466 -5.48835,0.8065 -6.82143,0.95256 -0.40748,0.0446 -0.74087,0.0402 -0.74087,-0.01 z"
       id="path1610"
       transform="scale(0.26458333)" />
    <path
       style="fill:#c83737;stroke:#000000;stroke-width:0.11854"
       d="m 370.4902,805.01265 c -2.9289,-1.19425 -4.4141,-2.75177 -4.92667,-5.16658 -0.37495,-1.76646 -0.0978,-3.27457 1.28535,-6.99383 0.71912,-1.93373 1.2759,-3.80205 1.2759,-4.2814 0,-0.43739 0.81109,-0.83883 2.03324,-1.00635 0.52295,-0.0717 0.52869,-0.0686 0.73968,0.39932 0.19678,0.43637 0.19856,0.4988 0.0238,0.83674 -0.2548,0.49273 -0.23914,0.5969 0.10264,0.68268 0.52849,0.13264 0.59357,0.35755 0.18984,0.65604 -0.38602,0.2854 -0.46379,0.46071 -0.20437,0.46071 0.10852,0 0.15482,0.15455 0.147,0.49065 -0.009,0.39849 -0.0627,0.50963 -0.28457,0.5917 -0.15023,0.0556 -0.24292,0.14996 -0.20597,0.20976 0.037,0.0598 0.0904,0.50831 0.1187,0.99671 0.0474,0.81685 0.0321,0.89307 -0.1906,0.95131 -0.31821,0.0832 -0.21084,0.38621 0.11987,0.33825 0.14063,-0.0204 0.25569,0.0196 0.25569,0.0889 0,0.0693 -0.13335,0.12599 -0.29634,0.12599 -0.32035,0 -0.40313,0.20355 -0.12603,0.30988 0.0937,0.0359 0.14427,0.13325 0.11243,0.21623 -0.0318,0.083 0.0584,0.348 0.20057,0.58893 0.25464,0.43158 0.25528,0.44514 0.0433,0.91518 -0.18431,0.40872 -0.19074,0.49256 -0.0449,0.58484 0.0936,0.0592 0.23038,0.10854 0.30389,0.10954 0.0735,9.9e-4 0.19677,0.0778 0.27389,0.17077 0.11305,0.13622 0.0699,0.22094 -0.22257,0.43718 -0.38602,0.2854 -0.46379,0.46072 -0.20437,0.46072 0.10852,0 0.15482,0.15454 0.147,0.49065 -0.009,0.39848 -0.0627,0.50963 -0.28457,0.59169 -0.15023,0.0556 -0.24292,0.14997 -0.20597,0.20976 0.037,0.0598 0.0904,0.50831 0.1187,0.99671 0.0474,0.81685 0.0321,0.89308 -0.1906,0.95132 -0.31821,0.0832 -0.21084,0.38621 0.11987,0.33824 0.14063,-0.0204 0.25569,0.0196 0.25569,0.0889 0,0.0693 -0.13335,0.12599 -0.29634,0.12599 -0.32035,0 -0.40313,0.20354 -0.12603,0.30988 0.0937,0.0359 0.14427,0.13325 0.11243,0.21622 -0.0318,0.083 0.0584,0.348 0.20057,0.58894 0.25618,0.43419 0.25652,0.44239 0.0381,0.92672 -0.12594,0.27929 -0.17058,0.50604 -0.10418,0.52923 0.39747,0.13882 0.70887,0.36414 0.70887,0.51291 0,0.26005 -0.28525,0.24568 -1.01296,-0.051 z"
       id="path1612"
       transform="scale(0.26458333)" />
    <path
       style="fill:#c83737;stroke:#000000;stroke-width:0.11854"
       d="m 382.59954,814.06537 -0.99466,-0.94286 h 0.82764 c 0.4552,0 1.6496,-0.0251 2.65422,-0.0558 l 1.82657,-0.0558 -1.05427,0.17434 c -0.57984,0.0959 -1.26011,0.22976 -1.51169,0.2975 -0.58298,0.15699 -0.86607,0.56707 -0.77574,1.12375 0.0368,0.22693 0.057,0.41014 0.0448,0.40713 -0.0122,-0.003 -0.46978,-0.42974 -1.01685,-0.94831 z"
       id="path1614"
       transform="scale(0.26458333)" />
    <path
       style="fill:#c83737;stroke:#000000;stroke-width:0.11854"
       d="m 416.4255,811.27916 c -0.36602,-0.3736 -0.80159,-0.68151 -1.12613,-0.79607 -0.29109,-0.10275 -0.44923,-0.19335 -0.35144,-0.20133 0.0978,-0.008 0.39962,-0.0575 0.67071,-0.10999 l 0.4929,-0.0955 0.50075,0.8752 c 0.27541,0.48135 0.48035,0.88908 0.45542,0.90606 -0.0249,0.017 -0.31393,-0.24331 -0.64221,-0.5784 z"
       id="path1616"
       transform="scale(0.26458333)" />
    <path
       style="fill:#c83737;stroke:#000000;stroke-width:0.11854"
       d="m 382.59598,829.95006 c -0.019,-0.37113 -1.44172,-3.06076 -2.34871,-4.44016 -1.31349,-1.99766 -2.64618,-3.61556 -4.76006,-5.77881 -1.00342,-1.02685 -1.77272,-1.86699 -1.70956,-1.86699 0.20873,0 2.33091,1.84061 3.36097,2.91504 1.76658,1.84268 3.64172,4.39112 4.53252,6.16002 0.4776,0.9484 1.08783,2.8103 0.9961,3.03927 -0.0444,0.11073 -0.0646,0.1027 -0.0713,-0.0284 z"
       id="path1618"
       transform="scale(0.26458333)" />
    <path
       style="fill:#c83737;stroke:#000000;stroke-width:0.11854"
       d="m 382.08564,839.1543 c -1.45743,-0.65725 -2.06852,-1.0091 -3.15168,-1.81466 -0.92272,-0.68623 -5.63542,-5.12977 -5.54083,-5.22437 0.0309,-0.0308 0.49839,0.35633 1.03897,0.86041 1.38651,1.2929 4.12884,3.58424 5.2503,4.38686 1.85049,1.32438 2.78804,1.602 3.32031,0.9832 0.22104,-0.25698 0.28761,-0.28346 0.34389,-0.13678 0.10137,0.26416 0.0857,1.46653 -0.0191,1.46585 -0.0489,-3.2e-4 -0.60773,-0.23454 -1.24185,-0.52051 z"
       id="path1620"
       transform="scale(0.26458333)" />
    <path
       style="fill:#c83737;stroke:#000000;stroke-width:0.00390625"
       d="m 392.75198,810.11865 c -0.008,-0.006 -0.0295,-0.0192 -0.0488,-0.0287 -0.066,-0.0324 -0.11709,-0.0443 -0.2051,-0.0476 -0.0676,-0.003 -0.12429,0.004 -0.17974,0.0197 -0.0172,0.005 -0.0312,0.008 -0.0312,0.008 0,-8.4e-4 0.003,-0.008 0.008,-0.0163 0.0127,-0.0249 0.0207,-0.0629 0.0191,-0.0908 l -10e-4,-0.0258 0.0196,0.009 c 0.0755,0.033 0.19324,0.0416 0.29539,0.0217 0.0426,-0.008 0.10444,-0.0272 0.12853,-0.0392 0.008,-0.004 0.0176,-0.008 0.0224,-0.01 l 0.009,-0.003 -0.009,0.0188 c -0.005,0.0103 -0.0116,0.0285 -0.0145,0.0403 -0.006,0.0261 -0.006,0.0943 1.1e-4,0.12833 0.003,0.0137 0.004,0.0254 0.003,0.026 -6.7e-4,6.4e-4 -0.007,-0.004 -0.0149,-0.0103 z"
       id="path1622"
       transform="scale(0.26458333)" />
    <path
       style="fill:url(#linearGradient1632);stroke:#000000;stroke-width:0.00390625;fill-opacity:1"
       d="m 392.49049,810.72596 c -0.005,-0.0121 -0.0227,-0.045 -0.0389,-0.0732 -0.0162,-0.0282 -0.0333,-0.062 -0.0381,-0.0751 -0.0293,-0.0802 -0.003,-0.16124 0.063,-0.19617 0.0166,-0.009 0.0245,-0.0103 0.0527,-0.0104 0.0496,-8e-5 0.0517,0.002 0.0294,0.0256 -0.0219,0.0235 -0.0415,0.0642 -0.0515,0.10716 -0.006,0.0264 -0.007,0.0478 -0.007,0.13769 v 0.10638 c 0,-4e-5 -0.004,-0.01 -0.01,-0.022 z"
       id="path1624"
       transform="scale(0.26458333)" />
    <ellipse
       style="fill:url(#linearGradient1726);stroke:#000000;stroke-width:0.264583;fill-opacity:1"
       id="path1712"
       cx="18.123959"
       cy="159.54375"
       rx="7.0114584"
       ry="7.4083333" />
    <circle
       style="fill:url(#linearGradient1732);stroke:#000000;stroke-width:0.264583;fill-opacity:1"
       id="path1714"
       cx="11.244792"
       cy="134.01146"
       r="6.4822917" />
    <circle
       style="fill:url(#linearGradient1730);stroke:#000000;stroke-width:0.264583;fill-opacity:1"
       id="path1716"
       cx="30.427082"
       cy="179.3875"
       r="5.5562501" />
    <ellipse
       style="fill:url(#linearGradient1728);stroke:#000000;stroke-width:0.264583;fill-opacity:1"
       id="path1718"
       cx="6.7468748"
       cy="175.94792"
       rx="5.6885414"
       ry="5.5562501" />
  </g>
</svg>
