<?xml version="1.0" encoding="UTF-8" standalone="no"?>
<svg
   xmlns:dc="http://purl.org/dc/elements/1.1/"
   xmlns:cc="http://creativecommons.org/ns#"
   xmlns:rdf="http://www.w3.org/1999/02/22-rdf-syntax-ns#"
   xmlns:svg="http://www.w3.org/2000/svg"
   xmlns="http://www.w3.org/2000/svg"
   xmlns:sodipodi="http://sodipodi.sourceforge.net/DTD/sodipodi-0.dtd"
   xmlns:inkscape="http://www.inkscape.org/namespaces/inkscape"
   width="210mm"
   height="297mm"
   viewBox="0 0 210 297"
   version="1.1"
   id="svg8"
   inkscape:version="1.0.2-2 (e86c870879, 2021-01-15)"
   sodipodi:docname="slimak.svg">
  <defs
     id="defs2" />
  <sodipodi:namedview
     id="base"
     pagecolor="#ffffff"
     bordercolor="#666666"
     borderopacity="1.0"
     inkscape:pageopacity="0.0"
     inkscape:pageshadow="2"
     inkscape:zoom="1.4385061"
     inkscape:cx="403.97305"
     inkscape:cy="500.44197"
     inkscape:document-units="mm"
     inkscape:current-layer="layer1"
     inkscape:document-rotation="0"
     showgrid="false"
     inkscape:window-width="1920"
     inkscape:window-height="1017"
     inkscape:window-x="-8"
     inkscape:window-y="-8"
     inkscape:window-maximized="1" />
  <metadata
     id="metadata5">
    <rdf:RDF>
      <cc:Work
         rdf:about="">
        <dc:format>image/svg+xml</dc:format>
        <dc:type
           rdf:resource="http://purl.org/dc/dcmitype/StillImage" />
        <dc:title></dc:title>
      </cc:Work>
    </rdf:RDF>
  </metadata>
  <g
     inkscape:label="Warstwa 1"
     inkscape:groupmode="layer"
     id="layer1">
    <path
       sodipodi:type="spiral"
       style="fill:none;fill-rule:evenodd;stroke:#000000;stroke-width:0.264583"
       id="path18"
       sodipodi:cx="84.666664"
       sodipodi:cy="126.24404"
       sodipodi:expansion="1"
       sodipodi:revolution="3"
       sodipodi:radius="78.695335"
       sodipodi:argument="-18.304193"
       sodipodi:t0="0"
       d="m 84.666664,126.24404 c 3.373299,2.04673 -1.094676,5.55692 -3.401789,5.60665 -6.252135,0.13474 -9.064422,-7.22738 -7.811501,-12.41023 2.241183,-9.27089 13.055468,-12.93956 21.418658,-10.01635 12.273318,4.28991 16.904398,18.95353 12.221208,30.42709 -6.24195,15.29245 -24.875236,20.90595 -39.435523,14.42607 C 49.335083,146.123 42.731535,123.46934 51.026795,105.83331 61.073466,84.47371 87.773542,76.876127 108.47919,86.997527 132.88008,98.925248 141.47411,129.6869 129.51982,153.45836 115.71812,180.90344 80.885279,190.49553 54.05056,176.70385 23.559247,161.03286 12.967994,122.12234 28.600215,92.226148 46.137205,58.687137 89.129986,47.095894 122.08635,64.570948 158.67415,83.971569 171.266,131.04997 151.9464,167.06551" />
    <path
       style="fill:none;stroke:#000000;stroke-width:0.264583px;stroke-linecap:butt;stroke-linejoin:miter;stroke-opacity:1"
       d="m 48.380951,173.11309 c -2.005362,1.78269 -7.593941,-1.48896 -9.827379,0 -0.593018,0.39535 -0.918887,1.11656 -1.511906,1.51191 -0.628991,0.41933 -1.534475,-0.18335 -2.267857,0 -2.246707,0.56167 -4.870895,2.81342 -6.80357,3.77976 -3.146094,1.57305 0.808138,-0.0522 -0.755954,1.5119 -0.50423,0.50423 -4.398769,2.15831 -4.535714,2.26786 -2.856373,2.2851 1.89614,0.94181 -2.267857,3.02381 -0.929271,0.46464 -2.094538,0.29132 -3.023809,0.75595 -0.225382,0.11269 0.178179,0.57778 0,0.75596 -0.549493,0.54949 -3.23027,0.96241 -3.779762,1.5119 -0.494947,0.49495 -0.470125,1.74697 -1.511905,2.26786 -0.225382,0.11269 -0.577773,-0.17818 -0.755952,0 -2.1266688,2.12667 3.098321,12.51047 5.291666,13.60714 12.24944,6.12472 28.824517,3.77976 43.089286,3.77976 10.079363,0 20.158729,0 30.238094,0 5.733365,0 11.842098,0.63025 17.386908,-0.75595 1.38327,-0.34582 3.20682,0.29531 4.53571,0 1.32466,-0.29437 2.44468,-1.26916 3.77976,-1.5119 1.48752,-0.27046 3.05981,0.32797 4.53572,0 0.8869,-0.19709 1.39427,-1.26232 2.26785,-1.51191 3.21417,-0.91833 7.35561,-0.436 10.58334,-1.5119 0.33807,-0.11269 0.50396,-0.50397 0.75595,-0.75596 0.50397,-0.25198 0.96527,-0.61929 1.5119,-0.75595 3.44112,-0.86028 6.37003,0.3965 9.82739,-0.75595 2.46678,-0.82226 5.46162,-1.79222 8.31547,-2.26786 1.69183,-0.28197 4.52764,0.75999 6.04762,0 2.16158,-1.08079 4.50264,-0.74492 6.80357,-1.5119 0.23906,-0.0797 -0.17818,-0.57777 0,-0.75596 0.56346,-0.56345 1.49481,-0.56269 2.26786,-0.75595 0.88815,-0.22204 2.96438,0.40769 3.77976,0 0.22538,-0.11269 -0.17818,-0.57777 0,-0.75595 0.34945,-0.34945 1.81143,0.22821 2.26786,0 0.50397,-0.25199 0.22141,-1.33373 0.75595,-1.5119 0.71716,-0.23906 1.52658,0.14825 2.26786,0 0.96818,-0.19364 7.59999,-3.82023 8.31547,-4.53572 0.75641,-0.75641 1.68159,-7.22017 0.75596,-9.07143 -0.47238,-0.94475 -1.62223,-3.13413 -2.26786,-3.77976 -0.17818,-0.17818 -0.57777,0.17818 -0.75595,0 -0.17818,-0.17818 0,-0.50397 0,-0.75595 -0.25199,-0.50397 -0.35753,-1.11349 -0.75596,-1.51191 -0.17817,-0.17818 -0.57777,0.17818 -0.75595,0 -0.39461,-0.3946 0.58239,-7.96835 0.75595,-8.31547 2.05142,-4.10283 4.90847,-3.21542 8.31548,-1.51191 1.0989,0.54945 7.97253,0.54945 9.07143,0 1.87013,-0.93506 0.0359,-3.85148 0.75595,-5.29166 2.0638,-4.1276 2.834,-13.13591 0,-17.38691 -0.39534,-0.59302 -1.19317,-0.87443 -1.51191,-1.5119 -0.22907,-0.45816 -0.43917,-1.95108 -0.75595,-2.26786 -0.35636,-0.35636 -1.06114,0.22538 -1.5119,0 -0.63748,-0.31874 -0.87443,-1.19317 -1.51191,-1.51191 -1.00793,-0.50396 -2.77182,0.50397 -3.77976,0 -1.50675,-0.75337 -3.02896,-0.75852 -4.53571,-1.5119 -2.32948,-1.16474 -7.91466,0 -10.58333,0 -0.31128,0 -2.06776,-0.20011 -2.26786,0 -0.17818,0.17818 0.17818,0.57777 0,0.75595 -0.53454,0.53454 -1.59171,-0.33807 -2.26786,0 -0.50397,0.25199 -0.25198,1.25992 -0.75595,1.51191 -1.86188,0.93093 0.68242,-2.19433 -2.26786,0.75595 -0.35636,0.35636 0.22538,1.06114 0,1.5119 -0.31874,0.63748 -1.11656,0.91889 -1.5119,1.51191 -0.44201,0.66301 -0.1925,1.7044 -0.75596,2.26786 -0.17817,0.17817 -0.57777,-0.17818 -0.75595,0 -0.37873,0.37873 -0.26036,2.52822 -0.75595,3.02381 -0.17818,0.17817 -0.57777,-0.17819 -0.75595,0 -0.20011,0.2001 0,1.95658 0,2.26785 0,2.23158 -0.1833,16.81425 -0.75596,17.38691 -1.56409,1.56409 0.0611,-2.39014 -1.5119,0.75595 -0.22908,0.45815 -0.43918,1.95108 -0.75595,2.26786 -0.35636,0.35635 -1.06114,-0.22538 -1.51191,0 -2.42619,1.21309 -6.64524,1.21309 -9.07143,0 -0.5256,-0.26281 -5.8596,-1.51193 -3.77976,-1.51191 1.53276,2e-5 3.02379,0.50399 4.53569,0.75599"
       id="path26" />
    <path
       style="fill:#808080;stroke:#000000;stroke-width:0.264583px;stroke-linecap:butt;stroke-linejoin:miter;stroke-opacity:1"
       d="m 120.19643,166.30952 c 1.0481,1.0415 4.66544,-0.69109 6.04762,0 5.5549,2.77745 13.81737,1.51191 20.41071,1.51191 0.5081,0 1.82172,0.22307 2.26786,0 0.6292,-0.31461 3.02387,-3.12255 3.02378,-0.75592"
       id="path28" />
    <path
       style="fill:#cccccc;stroke:#000000;stroke-width:2.85714"
       d="m 103.44207,781.43683 c -36.80376,-6.55232 -46.369036,-13.56428 -56.953079,-41.75026 -4.908062,-13.07048 -4.895006,-13.22488 1.718002,-20.3172 3.665006,-3.93065 9.556505,-8.05482 13.09222,-9.16482 3.535714,-1.11001 6.428571,-3.05655 6.428571,-4.32566 0,-1.2691 3.857143,-3.07889 8.571429,-4.02175 5.074525,-1.0149 8.571428,-3.51073 8.571428,-6.11765 0,-2.42185 4.5,-6.54927 10,-9.17204 5.499999,-2.62276 9.999999,-5.76205 9.999999,-6.97619 0,-3.51099 24.19202,-16.73412 30.61547,-16.73412 3.20524,0 7.42278,-1.92194 9.37231,-4.27099 6.0482,-7.28763 32.40199,-2.55907 57.76446,10.36446 32.92037,16.77468 60.11086,23.12695 99.39062,23.21971 20.78486,0.0491 39.92203,-1.62759 52.08566,-4.56341 33.18782,-8.01022 70.34911,-27.4054 92.71791,-48.3912 8.6702,-8.13414 9.85583,-8.42888 25.71429,-6.39234 17.29034,2.22042 84.90437,5.19572 119.32168,5.25064 12.78929,0.0203 20.24103,-1.17287 20.96937,-3.35791 0.62143,-1.86426 3.0768,-5.3365 5.45637,-7.71608 3.19106,-3.19105 4.84935,-14.23785 6.31869,-42.09184 1.81034,-34.31858 2.696,-38.86839 9.70409,-49.8514 4.24157,-6.64735 7.71194,-13.39735 7.71194,-15 0,-1.60266 1.82143,-2.91392 4.04763,-2.91392 2.22617,0 4.47617,-1.23945 5,-2.75434 0.5238,-1.51488 10.28508,-4.34995 21.69174,-6.30015 17.03006,-2.91164 23.16223,-2.8493 34.28571,0.34858 7.45049,2.14192 18.32326,4.46494 24.16169,5.16225 26.9826,3.22267 40.5086,37.13803 29.43414,73.80385 -2.32994,7.71404 -3.47805,16.43604 -2.5514,19.38222 0.95729,3.04356 0.0114,6.41756 -2.19234,7.8134 -5.84983,3.70662 -25.31651,2.9516 -38.03586,-1.47524 -20.16888,-7.01957 -30.07337,2.32369 -30.00543,28.30514 0.0297,11.38627 1.76092,16.5636 8.52932,25.50897 8.38008,11.07543 10.63268,23.37622 6.85526,37.43479 -1.5912,5.92209 -25.76495,21.34196 -33.4578,21.34196 -2.3388,0 -7.935,1.92065 -12.43606,4.26811 -4.50106,2.34746 -11.43337,4.27603 -15.40514,4.28571 -3.9718,0.01 -9.75752,1.71028 -12.85715,3.77911 -7.58651,5.06351 -33.34834,10.58741 -40.5696,8.699 -3.19885,-0.83651 -15.37223,1.16052 -27.05194,4.43785 -11.67971,3.27733 -27.34549,5.95879 -34.81286,5.95879 -7.46734,0 -16.38534,1.51495 -19.81774,3.36656 -3.4324,1.85161 -15.8836,5.11412 -27.66931,7.25003 -11.78572,2.13591 -27.85715,5.16081 -35.71429,6.722 -34.59466,6.87386 -56.12817,7.94834 -184.28571,9.19543 -100.83486,0.98123 -140.85442,0.40552 -155.71429,-2.24005 z"
       id="path30"
       transform="scale(0.26458333)" />
    <path
       style="fill:#a05a2c;stroke:#000000;stroke-width:2.85714"
       d="M 250.90483,682.9082 C 168.14466,660.53071 106.14086,593.83923 87.493888,507.14286 81.784898,480.59974 83.188192,428.62155 90.343772,401.5828 113.45289,314.2605 182.04249,247.4527 272.84799,223.81961 c 38.31709,-9.97243 87.88043,-10.42166 124.87979,-1.1319 132.56646,33.28465 219.16672,158.20464 206.74709,298.23052 -3.85006,43.40771 -22.9978,102.77554 -34.08289,105.67437 -3.15211,0.82429 -29.29994,1.40866 -58.10631,1.29854 l -52.3752,-0.20028 11.17009,-14.5598 c 14.81171,-19.30646 29.66488,-50.31297 35.05305,-73.17455 6.225,-26.41208 5.70375,-68.43139 -1.18297,-95.35814 -16.00326,-62.57195 -65.05843,-113.31645 -124.51514,-128.80296 -19.58391,-5.10096 -60.21036,-5.71276 -81.8528,-1.23262 -36.56162,7.5685 -77.01846,34.97003 -96.53443,65.38302 -46.42974,72.35448 -22.38024,169.16933 50.61143,203.74388 18.13461,8.58994 21.33364,9.16745 50.78237,9.16745 28.11818,0 33.14939,-0.80654 47.7659,-7.65731 21.61987,-10.13323 43.17604,-30.72986 52.91361,-50.55829 10.75126,-21.89251 11.22783,-56.94225 1.08203,-79.57597 -13.39237,-29.87628 -42.94523,-48.27524 -73.80585,-45.94988 -29.58756,2.22944 -49.80792,17.42924 -55.24413,41.52744 -7.5772,33.58898 23.72385,63.18118 44.67192,42.23313 5.83838,-5.83838 6.5701,-8.15825 4.05532,-12.85715 -4.17597,-7.80287 -6.20625,-7.21903 -4.09858,1.17861 1.34248,5.34886 0.0832,7.99417 -5.5683,11.69719 -9.76237,6.39655 -21.13414,2.57145 -29.62906,-9.96627 -13.46892,-19.87887 -4.26155,-49.26009 19.71983,-62.92708 18.14336,-10.3399 44.60046,-10.0634 62.83617,0.65669 26.60954,15.64274 40.42368,40.18388 40.64057,72.19889 0.32283,47.64849 -36.02194,87.6138 -87.73179,96.47132 -59.31328,10.15994 -118.29189,-30.88617 -134.65647,-93.71407 -24.76433,-95.07667 55.29188,-186.29226 158.4774,-180.56824 88.4124,4.90451 156.77217,76.27047 161.97574,169.09884 4.8504,86.52772 -50.88728,165.33552 -137.69002,194.68075 -31.70002,10.71675 -86.69385,12.61535 -118.25153,4.08246 z"
       id="path46"
       transform="scale(0.26458333)" />
    <path
       style="fill:none;stroke:#000000;stroke-width:0.264583px;stroke-linecap:butt;stroke-linejoin:miter;stroke-opacity:1"
       d="m 200.48286,162.59344 c -0.5912,-0.0665 -2.49938,0.0756 -2.94286,-0.36786 -0.0434,-0.0434 0.049,-0.14714 0,-0.18392 -0.26413,-0.1981 -0.68619,-0.1344 -0.91965,-0.36786 -0.13633,-0.13633 -0.13957,-0.3235 -0.36786,-0.55179 -0.0114,-0.5179 -0.41469,-0.0468 -0.55179,-0.18393 -0.30097,-0.30098 -0.47211,-1.0239 -0.73571,-1.28751 -0.52196,-0.52195 -0.61474,-0.49374 -0.91965,-1.10357 -0.38273,-0.76547 0.0127,0.19663 -0.36786,-0.18393 -0.2308,-0.2308 -1.47143,-2.77279 -1.47143,-3.1268"
       id="path50" />
    <path
       style="fill:none;stroke:#000000;stroke-width:0.264583px;stroke-linecap:butt;stroke-linejoin:miter;stroke-opacity:1"
       d="m 186.8721,156.33985 c 0.6971,-0.15319 1.51496,0.17305 2.20715,0 0.79056,0.38386 0.20335,-0.31302 0.36786,-0.36786 0.33107,-0.11036 0.7725,0.11036 1.10358,0 0.81035,-0.27012 2.26338,-0.42409 2.94286,-1.10357 0.12057,-0.12057 0.38995,-0.57388 0.55179,-0.73572 0.0434,-0.0434 0.12909,0.0274 0.18393,0 0.57647,-0.28824 0.55179,-1.2222 0.55179,-1.83929"
       id="path56" />
    <path
       style="fill:none;stroke:#000000;stroke-width:0.264583px;stroke-linecap:butt;stroke-linejoin:miter;stroke-opacity:1"
       d="m 188.52747,140.88979 c -1.018,-0.12266 -1.97295,0.20621 -2.94287,0.36786 -0.42763,0.0713 -0.89975,-0.01 -1.28751,0.18393 -0.1652,0.0826 -0.28242,0.66334 -0.36786,0.91965 -0.54403,1.6321 -0.0237,2.73527 1.10358,3.86251 0.14922,0.14923 0.36439,0.45809 0.55179,0.55179 1.30379,0.65189 2.74209,0.73571 4.23037,0.73571 0.97394,0 1.91813,-0.26276 2.57501,-0.91964 0.13709,-0.13709 0.0764,-0.39047 0.18393,-0.55179 0.0962,-0.14428 0.31302,-0.20335 0.36786,-0.36786 0.14918,-0.44754 0.003,-3.76537 -0.18393,-4.04644 -0.27761,-0.41641 -3.65087,-1.75363 -3.86252,-1.47143 -0.16451,0.21934 -0.24524,0.49047 -0.36785,0.73571 z"
       id="path60" />
    <path
       style="fill:none;stroke:#000000;stroke-width:0.264583px;stroke-linecap:butt;stroke-linejoin:miter;stroke-opacity:1"
       d="m 224.57759,141.80944 8.27682,-34.39477"
       id="path62" />
    <path
       style="fill:none;stroke:#000000;stroke-width:0.264583px;stroke-linecap:butt;stroke-linejoin:miter;stroke-opacity:1"
       d="m 180.80244,134.08441 c -0.12262,-0.73572 -0.24524,-1.47143 -0.36786,-2.20715 -0.0613,-0.12262 -0.15419,-0.23403 -0.18393,-0.36786 -0.24024,-1.08107 -0.39737,-2.22978 -0.55179,-3.31073 -0.0998,-0.6984 -0.45201,-1.32481 -0.55179,-2.02322 -0.083,-0.58124 -0.11184,-1.51118 -0.36785,-2.02322 -0.25063,-0.50125 -0.78786,-1.12822 -0.91965,-1.65536 -0.0446,-0.17844 0.0446,-0.37335 0,-0.55179 -0.0805,-0.32186 -0.47694,-0.54541 -0.55179,-0.91965 -0.0497,-0.24852 0.12331,-0.85696 0,-1.10357 -0.13124,-0.26249 -0.36786,-0.2229 -0.36786,-0.55179"
       id="path64" />
    <path
       style="fill:none;stroke:#000000;stroke-width:0.264583px;stroke-linecap:butt;stroke-linejoin:miter;stroke-opacity:1"
       d="m 189.26318,134.45227 c 0.57879,-1.75141 1.56855,-3.32102 2.39108,-4.96609 0.49736,-0.99471 1.61921,-4.04958 1.83929,-5.15002 0.059,-0.29476 -0.059,-0.62488 0,-0.91964 0.2248,-1.12398 0.4747,-1.6317 1.10358,-2.57501 0.45301,-0.67952 -1.04038,0.67251 0.18393,-0.55179 0.0969,-0.0969 0.27092,-0.087 0.36786,-0.18393 0.15543,-0.15543 0.0986,-0.41715 0.36786,-0.55179 0.3718,-0.1859 0.36054,-0.30167 0.73571,-0.55179 0.45151,-0.301 0.60325,-0.56465 1.28751,-0.73571 0.8927,-0.22318 2.21199,0 3.12679,0 0.12262,0 0.28116,-0.0867 0.36786,0 0.0434,0.0434 0,0.12262 0,0.18393"
       id="path68" />
    <path
       style="fill:none;stroke:#000000;stroke-width:0.264583px;stroke-linecap:butt;stroke-linejoin:miter;stroke-opacity:1"
       d="m 187.60782,147.32732 c -0.24524,0 -0.4978,0.0595 -0.73572,0 -0.22281,-0.0557 -1.35734,-3.90677 -1.10357,-4.41431 0.21268,-0.42536 1.08592,-1.27867 1.47143,-1.47143 0.33433,-0.16717 2.42461,-0.16717 2.75894,0 0.65826,0.32913 1.17035,1.78891 1.47143,2.39108 0.12317,0.24635 0.43879,0.25486 0.55179,0.36786 0.0613,0.0613 0.12262,0.49048 0.18393,0.55179 0.16185,0.16185 0.55179,0.24255 0.55179,0.55179"
       id="path72" />
    <path
       style="fill:#ffffff;stroke:#000000;stroke-width:0.695166"
       d="m 709.1705,556.17726 c -2.08477,-0.40568 -2.5754,-0.90683 -3.6036,-3.68079 -0.65464,-1.76615 -1.58654,-5.12977 -2.07088,-7.47472 l -0.88062,-4.26355 2.73922,-2.80522 2.73922,-2.80521 5.22083,0.20003 5.22082,0.20003 2.31144,4.37106 c 1.27129,2.40408 3.52251,5.68263 5.0027,7.28566 2.38519,2.58315 2.57691,3.04097 1.68576,4.02567 -0.55302,0.61109 -1.00549,1.41001 -1.00549,1.7754 0,0.36538 -1.00237,1.25645 -2.2275,1.98015 -2.39799,1.41653 -10.6403,2.06553 -15.1319,1.19149 z"
       id="path76"
       transform="scale(0.26458333)" />
    <path
       style="fill:#ffffff;stroke:#000000;stroke-width:0.695166"
       d=""
       id="path78"
       transform="scale(0.26458333)" />
    <path
       style="fill:#ffffff;stroke:#000000;stroke-width:0.695166"
       d=""
       id="path80"
       transform="scale(0.26458333)" />
  </g>
</svg>
