<?xml version="1.0" encoding="UTF-8" standalone="no"?>
<svg
   xmlns:dc="http://purl.org/dc/elements/1.1/"
   xmlns:cc="http://creativecommons.org/ns#"
   xmlns:rdf="http://www.w3.org/1999/02/22-rdf-syntax-ns#"
   xmlns:svg="http://www.w3.org/2000/svg"
   xmlns="http://www.w3.org/2000/svg"
   xmlns:sodipodi="http://sodipodi.sourceforge.net/DTD/sodipodi-0.dtd"
   xmlns:inkscape="http://www.inkscape.org/namespaces/inkscape"
   width="210mm"
   height="297mm"
   viewBox="0 0 210 297"
   version="1.1"
   id="svg88"
   inkscape:version="1.0.2-2 (e86c870879, 2021-01-15)"
   sodipodi:docname="zaba.svg">
  <defs
     id="defs82">
    <inkscape:path-effect
       effect="spiro"
       id="path-effect593"
       is_visible="true"
       lpeversion="1" />
    <inkscape:path-effect
       effect="spiro"
       id="path-effect185"
       is_visible="true"
       lpeversion="1" />
    <inkscape:path-effect
       effect="spiro"
       id="path-effect169"
       is_visible="true"
       lpeversion="1" />
  </defs>
  <sodipodi:namedview
     id="base"
     pagecolor="#ffffff"
     bordercolor="#666666"
     borderopacity="1.0"
     inkscape:pageopacity="0.0"
     inkscape:pageshadow="2"
     inkscape:zoom="0.73673541"
     inkscape:cx="396.85039"
     inkscape:cy="669.84699"
     inkscape:document-units="mm"
     inkscape:current-layer="layer1"
     inkscape:document-rotation="0"
     showgrid="false"
     inkscape:window-width="958"
     inkscape:window-height="1008"
     inkscape:window-x="-7"
     inkscape:window-y="0"
     inkscape:window-maximized="0" />
  <metadata
     id="metadata85">
    <rdf:RDF>
      <cc:Work
         rdf:about="">
        <dc:format>image/svg+xml</dc:format>
        <dc:type
           rdf:resource="http://purl.org/dc/dcmitype/StillImage" />
        <dc:title></dc:title>
      </cc:Work>
    </rdf:RDF>
  </metadata>
  <g
     inkscape:label="Warstwa 1"
     inkscape:groupmode="layer"
     id="layer1">
    <ellipse
       style="fill:#37c837;fill-opacity:1;stroke:#000000;stroke-width:0.264583"
       id="path679"
       cx="112.04837"
       cy="168.79082"
       rx="44.172913"
       ry="29.089479" />
    <ellipse
       style="fill:#ffffff;stroke:#000000;stroke-width:0.264583"
       id="path90"
       cx="111.33011"
       cy="118.69225"
       rx="51.71463"
       ry="35.733372" />
    <ellipse
       style="fill:#ffffff;stroke:#000000;stroke-width:0.264583"
       id="path112"
       cx="156.22127"
       cy="128.92746"
       rx="11.49214"
       ry="11.133011" />
    <ellipse
       style="fill:#ffffff;stroke:#000000;stroke-width:0.264583"
       id="path112-7"
       cx="67.157196"
       cy="128.20918"
       rx="11.49214"
       ry="11.133011" />
    <ellipse
       style="fill:#ffffff;stroke:#000000;stroke-width:0.264583"
       id="path134"
       cx="102.71101"
       cy="94.091896"
       rx="8.9782352"
       ry="22.625151" />
    <ellipse
       style="fill:#ffffff;stroke:#000000;stroke-width:0.264583"
       id="path134-7"
       cx="122.82225"
       cy="94.451027"
       rx="8.9782352"
       ry="22.625151" />
    <path
       style="fill:none;stroke:#000000;stroke-width:0.264583px;stroke-linecap:butt;stroke-linejoin:miter;stroke-opacity:1"
       d="m 93.373637,69.311969 c 1.345309,-1.749619 2.919064,-3.323373 4.668684,-4.668681 1.058453,-0.813859 2.218569,-1.560171 3.528969,-1.816136 0.65521,-0.127982 1.34065,-0.127787 1.9845,0.04865 0.64385,0.176432 1.24404,0.534467 1.66912,1.049231 0.10897,0.131961 0.20621,0.27346 0.31877,0.402368 0.11256,0.128908 0.24301,0.246603 0.39949,0.315891 0.23087,0.102226 0.49333,0.09004 0.74546,0.103435 0.12607,0.0067 0.25278,0.02045 0.37313,0.05861 0.12034,0.03815 0.23474,0.102112 0.31792,0.197086 0.0887,0.101272 0.13688,0.230834 0.18225,0.357577 0.0454,0.126742 0.0914,0.256717 0.17688,0.360682 0.0863,0.104869 0.20725,0.175933 0.33278,0.227713 0.12553,0.05178 0.25742,0.08625 0.38548,0.131417 0.62234,0.219501 1.1464,0.703639 1.41442,1.306678 0.26801,0.60304 0.2762,1.316452 0.0221,1.925485"
       id="path167"
       inkscape:path-effect="#path-effect169"
       inkscape:original-d="m 93.373637,69.311969 c 2.375138,-0.912503 2.467467,-3.568073 4.668684,-4.668681 0.836094,-0.418047 6.090999,-1.26405 7.182589,-0.718259 0.52884,0.264421 0.47648,0.476488 0.71826,0.718259 0.13311,0.133117 1.21464,0.248195 1.43651,0.359129 0.79406,0.397029 0.11145,0.22289 0.35913,0.718259 0.74731,1.49461 -0.0248,-0.383921 0.71826,0.35913 0.83494,0.834935 0.5623,2.357943 1.43652,3.232163" />
    <path
       style="fill:none;stroke:#000000;stroke-width:0.264583px;stroke-linecap:butt;stroke-linejoin:miter;stroke-opacity:1"
       d="m 117.43531,68.593712 c -0.21661,-0.427369 -0.26539,-0.937082 -0.13376,-1.397776 0.13162,-0.460693 0.44232,-0.867701 0.85201,-1.11613 0.22899,-0.138856 0.48449,-0.22848 0.71826,-0.35913 0.45776,-0.255835 0.81679,-0.661089 1.09967,-1.102654 0.28288,-0.441564 0.49679,-0.92283 0.7267,-1.394148 0.22991,-0.471318 0.47981,-0.9389 0.82298,-1.33542 0.34318,-0.396521 0.78958,-0.720823 1.30108,-0.836459 0.58565,-0.132401 1.19542,0.016 1.79564,0 0.54559,-0.01455 1.0769,-0.164763 1.61016,-0.28098 0.53327,-0.116217 1.08972,-0.198776 1.62201,-0.07815 0.4087,0.09262 0.79301,0.309126 1.06223,0.630269 0.26923,0.321143 0.41662,0.748458 0.37429,1.165379 -0.0123,0.121047 -0.0399,0.240214 -0.0506,0.361413 -0.0107,0.1212 -0.003,0.247759 0.0506,0.356843 0.0382,0.0773 0.098,0.14219 0.16451,0.197109 0.0665,0.05492 0.13987,0.1007 0.21202,0.147911 0.0722,0.04721 0.1437,0.09637 0.20507,0.156922 0.0614,0.06056 0.1126,0.133518 0.13665,0.216318 0.0338,0.116219 0.0119,0.240327 -0.008,0.35976 -0.01,0.05972 -0.0189,0.119756 -0.0201,0.180256 -0.001,0.0605 0.006,0.121797 0.0278,0.178243 0.0253,0.06554 0.07,0.122715 0.12392,0.167696 0.054,0.04498 0.11708,0.07815 0.18294,0.102614 0.13172,0.04892 0.2732,0.06341 0.4114,0.08882 0.45366,0.0834 0.88395,0.290527 1.23212,0.59309 0.34817,0.302562 0.61328,0.699757 0.75915,1.13735 0.14586,0.437593 0.17208,0.914418 0.0751,1.365369 -0.097,0.45095 -0.31695,0.874823 -0.62984,1.213743"
       id="path183"
       inkscape:path-effect="#path-effect185"
       inkscape:original-d="m 117.43531,68.593712 c 0.32154,-0.528386 0.25562,-2.051269 0.71825,-2.513906 0.18928,-0.189278 0.52899,-0.169852 0.71826,-0.35913 1.48017,-1.480166 2.08034,-3.733636 3.95043,-4.668681 0.47474,-0.237374 1.2902,0.168481 1.79564,0 0.45756,-0.152517 2.74529,-0.846005 3.23217,-0.35913 0.22623,0.226232 1.24209,1.406795 1.43652,1.795648 0.10707,0.214143 -0.10708,0.504113 0,0.718256 0.15142,0.302845 0.56683,0.415415 0.71825,0.71826 0.10708,0.214143 -0.10707,0.504115 0,0.718259 0.74731,1.49461 -0.0248,-0.383921 0.71826,0.359129 0.47622,0.476216 1.43652,3.496376 1.43652,4.309552" />
    <ellipse
       style="fill:#ffffff;stroke:#000000;stroke-width:0.264583"
       id="path191"
       cx="104.32709"
       cy="89.064095"
       rx="5.207376"
       ry="11.49214" />
    <ellipse
       style="fill:#ffffff;stroke:#000000;stroke-width:0.264583"
       id="path191-4"
       cx="124.6179"
       cy="88.704956"
       rx="5.207376"
       ry="11.49214" />
    <ellipse
       style="fill:#ffffff;stroke:#000000;stroke-width:0.264583"
       id="path241"
       cx="105.94317"
       cy="85.652351"
       rx="1.0773882"
       ry="2.6934702" />
    <ellipse
       style="fill:#ffffff;stroke:#000000;stroke-width:0.264583"
       id="path241-9"
       cx="126.41354"
       cy="84.754532"
       rx="1.0773882"
       ry="2.6934702" />
    <path
       style="fill:#000000;stroke:#000000;stroke-width:1.35734"
       d="m 387.51328,375.33771 c -15.31958,-14.19772 -15.31958,-63.23736 0,-77.43507 7.38636,-6.84545 15.17048,-2.28824 20.95159,12.26609 2.83868,7.14657 3.22826,10.33866 3.22826,26.45144 0,16.11278 -0.38958,19.30487 -3.22826,26.45144 -5.78111,14.55433 -13.56523,19.11154 -20.95159,12.2661 z m 16.04684,-43.09157 c 2.98693,-4.26443 2.71329,-13.59576 -0.51413,-17.53236 -2.52413,-3.07877 -2.72367,-3.10937 -5.09003,-0.78057 -4.50214,4.43069 -2.61889,21.32962 2.37702,21.32962 0.61279,0 2.06501,-1.35751 3.22714,-3.01669 z"
       id="path265"
       transform="scale(0.26458333)" />
    <path
       style="fill:#000000;stroke:#000000;stroke-width:1.35734"
       d="m 463.2998,372.61902 c -7.29964,-7.73987 -9.44115,-16.21328 -9.44115,-37.35619 0,-21.14291 2.14151,-29.61632 9.44115,-37.35619 5.44556,-5.77398 9.8005,-6.06759 14.66424,-0.98865 15.20415,15.87689 15.20415,60.8128 0,76.68968 -4.86374,5.07894 -9.21868,4.78534 -14.66424,-0.98865 z m 18.96303,-47.1969 c 1.78229,-7.21486 -0.35519,-15.14167 -4.23176,-15.69337 -4.36595,-0.62135 -6.94701,8.37052 -4.62621,16.11667 1.35304,4.51602 2.18987,5.43676 4.62621,5.09003 2.17024,-0.30886 3.31431,-1.79941 4.23176,-5.51333 z"
       id="path315"
       transform="scale(0.26458333)" />
    <path
       style="fill:#000000;stroke:#000000;stroke-width:1.35734"
       d="m 463.35086,371.12768 c -2.44603,-2.67044 -5.15283,-7.40416 -6.01511,-10.51938 -3.94922,-14.26755 -3.95766,-37.66971 -0.0183,-50.81797 2.17737,-7.2674 9.39671,-15.24768 13.79379,-15.24768 1.82216,0 4.57216,1.37431 6.11112,3.05401 15.00616,16.3786 15.00616,58.95375 0,75.33234 -4.0941,4.46854 -8.67314,3.87391 -13.87145,-1.80132 z m 18.28549,-42.56231 c 1.81098,-3.38386 1.81098,-13.08269 0,-16.46654 -1.80774,-3.3778 -6.24078,-3.3778 -8.04852,0 -0.77281,1.44399 -1.4051,5.14896 -1.4051,8.23327 0,6.90677 1.97597,10.85871 5.42936,10.85871 1.44054,0 3.25146,-1.18145 4.02426,-2.62544 z"
       id="path317"
       transform="scale(0.26458333)" />
    <path
       style="fill:#000000;stroke:#000000;stroke-width:1.35734"
       d=""
       id="path319"
       transform="scale(0.26458333)" />
    <path
       style="fill:#000000;stroke:#000000;stroke-width:1.35734"
       d="m 465.01894,373.26305 c -8.39182,-6.601 -12.66367,-27.39523 -10.24643,-49.87694 1.40185,-13.03802 4.87808,-21.90076 10.24643,-26.1235 5.20317,-4.09281 9.08752,-3.43975 13.84101,2.32706 6.92012,8.39531 8.93218,16.43102 8.93218,35.67316 0,19.24214 -2.01206,27.27785 -8.93218,35.67317 -4.75349,5.7668 -8.63784,6.41987 -13.84101,2.32705 z m 16.379,-46.25144 c 2.1667,-4.069 1.2369,-13.09719 -1.64573,-15.97982 -1.9486,-1.9486 -2.33164,-1.9486 -4.28024,0 -3.33103,3.33102 -4.07432,12.65064 -1.3416,16.8213 2.65419,4.05081 4.79444,3.803 7.26757,-0.84148 z"
       id="path321"
       transform="scale(0.26458333)" />
    <path
       style="fill:#37c837;stroke:#000000;stroke-width:1.35734"
       d="m 397.6531,581.48968 c -31.12454,-2.56347 -65.71527,-12.07424 -91.43993,-25.14153 -20.634,-10.48142 -47.21648,-30.37913 -40.58518,-30.37913 4.32138,0 14.44116,-5.69868 20.01131,-11.26882 9.5438,-9.54381 11.44665,-14.5525 11.44665,-30.13003 0,-15.57754 -1.90285,-20.58623 -11.44665,-30.13003 -9.37324,-9.37324 -16.18374,-11.91361 -31.98821,-11.93184 -11.49689,-0.0133 -14.44764,0.45156 -19.28802,3.03836 -3.14304,1.67971 -6.04435,3.05401 -6.44736,3.05401 -1.67017,0 -0.55169,-13.84704 1.88944,-23.39179 8.63121,-33.7477 38.69192,-66.25789 79.40861,-85.87919 11.08444,-5.34157 33.88227,-13.86166 42.94735,-16.05045 l 3.49627,-0.84418 -1.26126,9.12857 c -1.93652,14.01578 -0.26846,51.80597 2.88932,65.45814 6.6179,28.61153 17.6553,44.79221 30.55431,44.79221 2.79039,0 6.84394,-0.91557 9.00789,-2.03459 10.67675,-5.52116 20.55895,-28.1107 24.52609,-56.06367 1.57531,-11.09986 0.99186,-53.12905 -0.89401,-64.40163 l -0.85156,-5.09002 5.23852,0.0208 c 7.91372,0.0314 8.75268,1.01934 6.92661,8.15666 -0.90614,3.54172 -1.58203,17.67685 -1.62097,33.90007 -0.0535,22.27358 0.43692,30.12746 2.45781,39.36285 8.06138,36.84007 23.39791,54.17573 40.22851,45.47229 10.66321,-5.51416 20.56,-28.11416 24.51366,-55.97863 0.92731,-6.5354 1.37157,-21.06471 1.06873,-34.95148 -0.3855,-17.6763 -0.10704,-23.76649 1.08666,-23.76649 0.88273,0 7.06365,2.08311 13.73538,4.62913 59.76922,22.8088 96.71621,63.20721 101.56225,111.04974 l 0.92457,9.12772 -5.95263,-3.01782 c -4.97185,-2.5206 -8.18897,-3.01796 -19.526,-3.01865 -12.09652,-7.5e-4 -14.31184,0.39243 -20.36009,3.61353 -8.14032,4.33526 -15.52723,11.82252 -19.86711,20.13698 -2.65832,5.09288 -3.18774,8.13834 -3.18543,18.32409 0.003,10.60741 0.4772,13.10974 3.60568,19.00275 4.31912,8.13581 11.8962,15.61738 19.84543,19.59531 l 5.82792,2.91639 -5.82792,4.91011 c -31.15725,26.2504 -78.49334,43.78515 -129.20359,47.86103 -19.29966,1.55123 -23.7385,1.54297 -43.45305,-0.0808 z"
       id="path323"
       transform="scale(0.26458333)" />
    <path
       style="fill:#37c837;stroke:#000000;stroke-width:1.35734"
       d="m 574.7087,525.01565 c -9.8201,-3.76987 -20.48162,-14.35524 -23.56099,-23.39272 -5.26257,-15.44479 -1.8203,-31.25821 9.2041,-42.28261 16.47956,-16.47956 41.29824,-16.98783 58.85226,-1.20526 17.52062,15.75255 17.52062,42.54703 0,58.29957 -12.44791,11.19174 -29.25271,14.43258 -44.49537,8.58102 z"
       id="path325"
       transform="scale(0.26458333)" />
    <path
       style="fill:#37c837;stroke:#000000;stroke-width:1.35734"
       d="m 244.14971,524.10082 c -9.29035,-2.35048 -13.94621,-5.04358 -20.63449,-11.93567 -11.35054,-11.69642 -14.76563,-28.75887 -8.56988,-42.81686 3.78161,-8.58039 13.74087,-18.53484 22.1729,-22.1622 10.67999,-4.59441 24.63457,-4.05325 35.67839,1.3836 14.87631,7.32358 22.40412,19.33916 22.40412,35.76049 0,16.72035 -7.59658,29.0291 -22.2559,36.06128 -10.06123,4.82644 -19.54901,6.04865 -28.79514,3.70936 z"
       id="path567"
       transform="scale(0.26458333)" />
    <ellipse
       style="fill:#d40055;stroke:#000000;stroke-width:0.264583"
       id="path569"
       cx="79.54715"
       cy="128.38875"
       rx="10.235188"
       ry="9.8760576" />
    <ellipse
       style="fill:#d40055;stroke:#000000;stroke-width:0.264583"
       id="path569-9"
       cx="145.80653"
       cy="127.85005"
       rx="10.235188"
       ry="9.8760576" />
    <path
       style="fill:none;stroke:#000000;stroke-width:0.264583px;stroke-linecap:butt;stroke-linejoin:miter;stroke-opacity:1"
       d="m 84.395404,136.11003 c 0.677473,0.83983 1.171135,1.82716 1.436518,2.87304 0.0935,0.36847 0.162248,0.75219 0.35913,1.07739 0.202205,0.33399 0.528067,0.58109 0.884938,0.73945 0.35687,0.15836 0.745094,0.23373 1.13279,0.27986 0.775393,0.0922 1.588179,0.0786 2.291824,0.4172 0.389481,0.1874 0.721724,0.47266 1.077388,0.71826 1.257823,0.86857 2.794833,1.2312 4.309552,1.43652 2.49546,0.33826 5.024216,0.29656 7.541716,0.35913 3.47362,0.0863 6.96001,0.37183 10.41475,0 2.57544,-0.27719 5.10445,-0.91846 7.54172,-1.79565 3.65693,-1.31615 7.24667,-3.19085 11.13301,-3.23216 0.23941,-0.003 0.47885,0.002 0.71826,0 1.32089,-0.011 2.66907,-0.23233 3.82086,-0.87905 0.5759,-0.32336 1.09628,-0.75163 1.49907,-1.27506 0.40278,-0.52344 0.68562,-1.1434 0.78527,-1.79631 0.0544,-0.35638 0.0544,-0.72101 0,-1.07739"
       id="path591"
       inkscape:path-effect="#path-effect593"
       inkscape:original-d="m 84.395404,136.11003 c -0.11026,1.90676 0.595196,2.03172 1.436518,2.87304 0.06617,0.0662 0.292955,1.01121 0.35913,1.07739 0.754203,0.7542 3.217677,1.16355 4.309552,1.43651 1.734216,0.43356 -0.01781,0.17067 1.077388,0.71826 1.56423,0.78212 2.704373,1.03523 4.309552,1.43652 2.370238,0.59256 5.066596,0.35913 7.541716,0.35913 2.87132,0 7.80774,0.5214 10.41475,0 2.53685,-0.50737 5.05846,-1.29899 7.54172,-1.79565 3.79376,-0.75875 7.68565,-1.50848 11.13301,-3.23216 0.21414,-0.10707 0.50412,0.10707 0.71826,0 0.73276,-0.36638 6.02008,-3.78019 6.1052,-3.95042 0.10597,-0.21195 0,-0.83601 0,-1.07739" />
    <ellipse
       style="fill:#241c1f;stroke:#000000;stroke-width:0.264583"
       id="path599"
       cx="108.99577"
       cy="126.41354"
       rx="0.89782345"
       ry="2.5139058" />
    <ellipse
       style="fill:#241c1f;stroke:#000000;stroke-width:0.264583"
       id="path599-7"
       cx="113.48489"
       cy="126.41355"
       rx="0.89782345"
       ry="2.5139058" />
    <ellipse
       style="fill:#ffccaa;stroke:#000000;stroke-width:0.301642"
       id="path633"
       cx="111.50968"
       cy="193.75031"
       rx="25.659222"
       ry="23.504444" />
    <ellipse
       style="fill:#37c837;fill-opacity:1;stroke:#000000;stroke-width:0.264583"
       id="path635"
       cx="62.668076"
       cy="196.26421"
       rx="23.522974"
       ry="23.163845" />
    <ellipse
       style="fill:#37c837;fill-opacity:1;stroke:#000000;stroke-width:0.264583"
       id="path635-6"
       cx="160.53084"
       cy="196.8029"
       rx="23.522974"
       ry="23.163845" />
    <ellipse
       style="fill:#37c837;fill-opacity:1;stroke:#000000;stroke-width:0.264583"
       id="path657"
       cx="44.532047"
       cy="217.81197"
       rx="28.371222"
       ry="8.080411" />
    <ellipse
       style="fill:#37c837;fill-opacity:1;stroke:#000000;stroke-width:0.247886"
       id="path657-5"
       cx="177.76906"
       cy="217.99153"
       rx="27.302181"
       ry="7.3705006" />
    <ellipse
       style="fill:#37c837;fill-opacity:1;stroke:#000000;stroke-width:0.264583"
       id="path681"
       cx="78.985786"
       cy="188.92426"
       rx="12.951331"
       ry="42.355068" />
    <ellipse
       style="fill:#008000;fill-opacity:1;stroke:#000000;stroke-width:0.264583"
       id="path683"
       cx="72.903267"
       cy="230.02237"
       rx="3.5912938"
       ry="3.0525997" />
    <circle
       style="fill:#008000;fill-opacity:1;stroke:#000000;stroke-width:0.264583"
       id="path685"
       cx="79.906288"
       cy="233.97279"
       r="3.4117291" />
    <circle
       style="fill:#008000;fill-opacity:1;stroke:#000000;stroke-width:0.264583"
       id="path687"
       cx="86.191048"
       cy="229.48367"
       r="3.2321644" />
    <ellipse
       style="fill:#37c837;fill-opacity:1;stroke:#000000;stroke-width:0.264583"
       id="path681-2"
       cx="142.21524"
       cy="189.26118"
       rx="12.951331"
       ry="42.355068" />
    <ellipse
       style="fill:#008000;fill-opacity:1;stroke:#000000;stroke-width:0.264583"
       id="path683-2"
       cx="135.39177"
       cy="227.68803"
       rx="3.5912938"
       ry="3.0525997" />
    <circle
       style="fill:#008000;fill-opacity:1;stroke:#000000;stroke-width:0.264583"
       id="path685-2"
       cx="142.93349"
       cy="231.99757"
       r="3.4117291" />
    <circle
       style="fill:#008000;fill-opacity:1;stroke:#000000;stroke-width:0.264583"
       id="path687-9"
       cx="149.39783"
       cy="228.04716"
       r="3.2321644" />
  </g>
</svg>
